<svg width="383" height="152" viewBox="0 0 383 152" fill="none" xmlns="http://www.w3.org/2000/svg">
<rect width="383" height="152" fill="#1E1E1E"/>
<path d="M159 108.634C164.899 133.282 266.526 160.066 319 108.634M159 32H319" stroke="white" stroke-width="10"/>
<path d="M16.0568 104V45.8182H55.2614V55.9602H28.358V69.8239H53.2443V79.9659H28.358V93.858H55.375V104H16.0568ZM84.0014 70.108V79.7102H57.4673V70.108H84.0014ZM86.5412 45.8182H101.712L117.734 84.9091H118.416L134.439 45.8182H149.609V104H137.678V66.1307H137.195L122.138 103.716H114.013L98.956 65.9886H98.473V104H86.5412V45.8182ZM205.21 74.9091C205.21 81.2538 204.008 86.6515 201.602 91.1023C199.216 95.553 195.958 98.9527 191.83 101.301C187.72 103.631 183.098 104.795 177.966 104.795C172.795 104.795 168.155 103.621 164.045 101.273C159.936 98.9242 156.688 95.5246 154.301 91.0739C151.915 86.6231 150.722 81.2348 150.722 74.9091C150.722 68.5644 151.915 63.1667 154.301 58.7159C156.688 54.2652 159.936 50.875 164.045 48.5455C168.155 46.197 172.795 45.0227 177.966 45.0227C183.098 45.0227 187.72 46.197 191.83 48.5455C195.958 50.875 199.216 54.2652 201.602 58.7159C204.008 63.1667 205.21 68.5644 205.21 74.9091ZM192.739 74.9091C192.739 70.7992 192.123 67.3333 190.892 64.5114C189.68 61.6894 187.966 59.5492 185.75 58.0909C183.534 56.6326 180.939 55.9034 177.966 55.9034C174.992 55.9034 172.398 56.6326 170.182 58.0909C167.966 59.5492 166.242 61.6894 165.011 64.5114C163.799 67.3333 163.193 70.7992 163.193 74.9091C163.193 79.0189 163.799 82.4848 165.011 85.3068C166.242 88.1288 167.966 90.2689 170.182 91.7273C172.398 93.1856 174.992 93.9148 177.966 93.9148C180.939 93.9148 183.534 93.1856 185.75 91.7273C187.966 90.2689 189.68 88.1288 190.892 85.3068C192.123 82.4848 192.739 79.0189 192.739 74.9091ZM201.45 55.9602V45.8182H249.234V55.9602H231.422V104H219.263V55.9602H201.45ZM261.405 45.8182V104H249.104V45.8182H261.405ZM316.991 74.9091C316.991 81.2538 315.789 86.6515 313.384 91.1023C310.997 95.553 307.74 98.9527 303.611 101.301C299.501 103.631 294.88 104.795 289.747 104.795C284.577 104.795 279.937 103.621 275.827 101.273C271.717 98.9242 268.469 95.5246 266.082 91.0739C263.696 86.6231 262.503 81.2348 262.503 74.9091C262.503 68.5644 263.696 63.1667 266.082 58.7159C268.469 54.2652 271.717 50.875 275.827 48.5455C279.937 46.197 284.577 45.0227 289.747 45.0227C294.88 45.0227 299.501 46.197 303.611 48.5455C307.74 50.875 310.997 54.2652 313.384 58.7159C315.789 63.1667 316.991 68.5644 316.991 74.9091ZM304.52 74.9091C304.52 70.7992 303.904 67.3333 302.673 64.5114C301.461 61.6894 299.747 59.5492 297.531 58.0909C295.315 56.6326 292.721 55.9034 289.747 55.9034C286.774 55.9034 284.179 56.6326 281.963 58.0909C279.747 59.5492 278.024 61.6894 276.793 64.5114C275.58 67.3333 274.974 70.7992 274.974 74.9091C274.974 79.0189 275.58 82.4848 276.793 85.3068C278.024 88.1288 279.747 90.2689 281.963 91.7273C284.179 93.1856 286.774 93.9148 289.747 93.9148C292.721 93.9148 295.315 93.1856 297.531 91.7273C299.747 90.2689 301.461 88.1288 302.673 85.3068C303.904 82.4848 304.52 79.0189 304.52 74.9091ZM366.768 45.8182V104H356.143L330.831 67.3807H330.405V104H318.104V45.8182H328.899L354.013 82.4091H354.524V45.8182H366.768Z" fill="white"/>
<path d="M16.0568 104V45.8182H55.2614V55.9602H28.358V69.8239H53.2443V79.9659H28.358V93.858H55.375V104H16.0568ZM84.0014 70.108V79.7102H57.4673V70.108H84.0014ZM86.5412 45.8182H101.712L117.734 84.9091H118.416L134.439 45.8182H149.609V104H137.678V66.1307H137.195L122.138 103.716H114.013L98.956 65.9886H98.473V104H86.5412V45.8182ZM205.21 74.9091C205.21 81.2538 204.008 86.6515 201.602 91.1023C199.216 95.553 195.958 98.9527 191.83 101.301C187.72 103.631 183.098 104.795 177.966 104.795C172.795 104.795 168.155 103.621 164.045 101.273C159.936 98.9242 156.688 95.5246 154.301 91.0739C151.915 86.6231 150.722 81.2348 150.722 74.9091C150.722 68.5644 151.915 63.1667 154.301 58.7159C156.688 54.2652 159.936 50.875 164.045 48.5455C168.155 46.197 172.795 45.0227 177.966 45.0227C183.098 45.0227 187.72 46.197 191.83 48.5455C195.958 50.875 199.216 54.2652 201.602 58.7159C204.008 63.1667 205.21 68.5644 205.21 74.9091ZM192.739 74.9091C192.739 70.7992 192.123 67.3333 190.892 64.5114C189.68 61.6894 187.966 59.5492 185.75 58.0909C183.534 56.6326 180.939 55.9034 177.966 55.9034C174.992 55.9034 172.398 56.6326 170.182 58.0909C167.966 59.5492 166.242 61.6894 165.011 64.5114C163.799 67.3333 163.193 70.7992 163.193 74.9091C163.193 79.0189 163.799 82.4848 165.011 85.3068C166.242 88.1288 167.966 90.2689 170.182 91.7273C172.398 93.1856 174.992 93.9148 177.966 93.9148C180.939 93.9148 183.534 93.1856 185.75 91.7273C187.966 90.2689 189.68 88.1288 190.892 85.3068C192.123 82.4848 192.739 79.0189 192.739 74.9091ZM201.45 55.9602V45.8182H249.234V55.9602H231.422V104H219.263V55.9602H201.45ZM261.405 45.8182V104H249.104V45.8182H261.405ZM316.991 74.9091C316.991 81.2538 315.789 86.6515 313.384 91.1023C310.997 95.553 307.74 98.9527 303.611 101.301C299.501 103.631 294.88 104.795 289.747 104.795C284.577 104.795 279.937 103.621 275.827 101.273C271.717 98.9242 268.469 95.5246 266.082 91.0739C263.696 86.6231 262.503 81.2348 262.503 74.9091C262.503 68.5644 263.696 63.1667 266.082 58.7159C268.469 54.2652 271.717 50.875 275.827 48.5455C279.937 46.197 284.577 45.0227 289.747 45.0227C294.88 45.0227 299.501 46.197 303.611 48.5455C307.74 50.875 310.997 54.2652 313.384 58.7159C315.789 63.1667 316.991 68.5644 316.991 74.9091ZM304.52 74.9091C304.52 70.7992 303.904 67.3333 302.673 64.5114C301.461 61.6894 299.747 59.5492 297.531 58.0909C295.315 56.6326 292.721 55.9034 289.747 55.9034C286.774 55.9034 284.179 56.6326 281.963 58.0909C279.747 59.5492 278.024 61.6894 276.793 64.5114C275.58 67.3333 274.974 70.7992 274.974 74.9091C274.974 79.0189 275.58 82.4848 276.793 85.3068C278.024 88.1288 279.747 90.2689 281.963 91.7273C284.179 93.1856 286.774 93.9148 289.747 93.9148C292.721 93.9148 295.315 93.1856 297.531 91.7273C299.747 90.2689 301.461 88.1288 302.673 85.3068C303.904 82.4848 304.52 79.0189 304.52 74.9091ZM366.768 45.8182V104H356.143L330.831 67.3807H330.405V104H318.104V45.8182H328.899L354.013 82.4091H354.524V45.8182H366.768Z" fill="white"/>
<ellipse cx="7.5" cy="8.5" rx="7.5" ry="8.5" transform="matrix(1 0 0 -1 177 72)" fill="white"/>
<ellipse cx="7.5" cy="8.5" rx="7.5" ry="8.5" transform="matrix(1 0 0 -1 288 72)" fill="white"/>
</svg>
