<svg width="385" height="203" viewBox="0 0 385 203" fill="none" xmlns="http://www.w3.org/2000/svg">
<rect width="385" height="203" fill="#1E1E1E"/>
<g clip-path="url(#clip0_0_1)">
<path d="M9 24H369.5M235.5 128V178.69M235.5 128H205.375H197.844M235.5 128H265.625H273.156M235.5 178.69C225.536 178.767 215.43 178.085 205.375 176.514C202.86 176.121 200.349 175.673 197.844 175.167M235.5 178.69C244.991 178.616 256.559 177.854 265.625 176.514C268.262 176.124 270.756 175.686 273.156 175.201M310.812 128H295.75H280.688H273.156M310.812 128H325.875H339.98C347.375 128 351.712 135.571 346.467 140.784C341.067 146.15 334.084 151.284 325.875 155.944C321.225 158.584 316.183 161.072 310.812 163.365M310.812 128V163.365M310.812 163.365C306.036 165.404 301 167.288 295.75 168.987C290.539 170.674 285.706 172.178 280.688 173.469C278.243 174.098 275.754 174.676 273.156 175.201M160.188 128H145.125H137.014C128.426 128 124.114 137.887 130.682 143.419C135.339 147.341 140.164 150.891 145.125 154.091C150.023 157.251 155.054 160.069 160.188 162.566M160.188 128H175.25H190.312H197.844M160.188 128V162.566M160.188 162.566C165.123 164.968 170.153 167.073 175.25 168.9C180.216 170.68 185.245 172.196 190.312 173.465C192.815 174.092 195.326 174.659 197.844 175.167M197.844 128V175.167M273.156 128V175.201" stroke="white" stroke-width="15"/>
<path d="M14.1602 43.6406H33.3008C35.2539 43.6406 37.0768 43.7871 38.7695 44.0801C40.4948 44.3405 41.8783 44.959 42.9199 45.9355C43.9941 46.9121 44.5312 48.4583 44.5312 50.5742C44.5312 52.6901 43.9941 54.2363 42.9199 55.2129C41.8783 56.1895 40.4948 56.8242 38.7695 57.1172C37.0768 57.3776 35.2539 57.5078 33.3008 57.5078H21.6797V70.7891H27.832C29.7526 70.7891 31.543 70.9193 33.2031 71.1797C34.8633 71.4076 36.1979 71.9935 37.207 72.9375C38.2487 73.849 38.7695 75.3464 38.7695 77.4297C38.7695 79.513 38.2487 81.0267 37.207 81.9707C36.1979 82.8822 34.8633 83.4681 33.2031 83.7285C31.543 83.9564 29.7526 84.0703 27.832 84.0703H21.6797V98.1328H33.3008C35.2539 98.1328 37.0768 98.263 38.7695 98.5234C40.4948 98.7839 41.8783 99.4023 42.9199 100.379C43.9941 101.323 44.5312 102.853 44.5312 104.969C44.5312 107.117 43.9941 108.696 42.9199 109.705C41.8457 110.682 40.446 111.316 38.7207 111.609C37.028 111.87 35.2214 112 33.3008 112H14.1602C11.849 112 10.1725 111.495 9.13086 110.486C8.12174 109.477 7.48698 108.126 7.22656 106.434C6.96615 104.741 6.83594 102.853 6.83594 100.77V54.8711C6.83594 52.7878 6.96615 50.8997 7.22656 49.207C7.48698 47.5143 8.12174 46.1634 9.13086 45.1543C10.1725 44.1452 11.849 43.6406 14.1602 43.6406ZM74.0312 88.5625H52.4492C50.3984 88.5625 48.7057 88.2044 47.3711 87.4883C46.069 86.7721 45.418 85.1771 45.418 82.7031C45.418 80.0339 46.0527 78.3574 47.3223 77.6738C48.6243 76.9902 50.3333 76.6484 52.4492 76.6484H74.0312C76.0495 76.6484 77.7259 77.0065 79.0605 77.7227C80.3952 78.4062 81.0625 80.0664 81.0625 82.7031C81.0625 85.1771 80.3626 86.7721 78.9629 87.4883C77.5957 88.2044 75.9518 88.5625 74.0312 88.5625ZM118.57 96.1797H117.594C115.868 96.1797 114.518 95.5775 113.541 94.373C112.564 93.1361 111.832 91.8177 111.344 90.418L102.066 63.6602H100.797V104.383C100.797 106.694 100.406 108.549 99.625 109.949C98.8438 111.316 97.0534 112 94.2539 112C91.1289 112 89.127 111.333 88.248 109.998C87.3691 108.663 86.9297 106.792 86.9297 104.383V54.7734C86.9297 52.6901 87.0436 50.8184 87.2715 49.1582C87.5319 47.4655 88.1667 46.1309 89.1758 45.1543C90.2174 44.1452 91.9102 43.6406 94.2539 43.6406H100.895C102.587 43.6406 103.922 43.7871 104.898 44.0801C105.875 44.373 106.835 45.3008 107.779 46.8633C108.365 47.8073 109.065 49.2721 109.879 51.2578C110.628 53.1458 111.507 55.571 112.516 58.5332C113.525 61.4954 114.762 65.125 116.227 69.4219L117.496 73.3281H118.668L120.23 68.4453C120.882 66.3945 121.5 64.5065 122.086 62.7812C122.672 61.0234 123.193 59.4447 123.648 58.0449C124.592 55.2129 125.423 52.8854 126.139 51.0625C126.855 49.207 127.506 47.7747 128.092 46.7656C128.938 45.2682 129.833 44.373 130.777 44.0801C131.754 43.7871 133.056 43.6406 134.684 43.6406H141.812C144.156 43.6406 145.833 44.1452 146.842 45.1543C147.883 46.1309 148.518 47.4655 148.746 49.1582C149.007 50.8184 149.137 52.6901 149.137 54.7734V104.383C149.137 106.792 148.697 108.663 147.818 109.998C146.939 111.333 144.938 112 141.812 112C139.046 112 137.255 111.316 136.441 109.949C135.66 108.549 135.27 106.694 135.27 104.383V63.6602H133.902L124.723 90.418C124.169 91.8177 123.437 93.1361 122.525 94.373C121.646 95.5775 120.328 96.1797 118.57 96.1797ZM154.223 92.1758V62.9766C154.223 59.7865 154.678 57.1172 155.59 54.9688C156.501 52.7552 157.673 50.916 159.105 49.4512C160.538 47.9863 162.1 46.847 163.793 46.0332C164.639 45.61 165.469 45.252 166.283 44.959C167.13 44.666 167.96 44.4056 168.773 44.1777C170.401 43.7546 171.85 43.4941 173.119 43.3965C174.421 43.2988 175.382 43.25 176 43.25H177.66C178.279 43.25 179.239 43.2988 180.541 43.3965C181.843 43.4941 183.292 43.7546 184.887 44.1777C186.514 44.5684 188.174 45.1868 189.867 46.0332C191.495 46.8145 193.041 47.9701 194.506 49.5C195.873 50.9648 196.996 52.804 197.875 55.0176C198.786 57.1986 199.242 59.8516 199.242 62.9766V92.1758C199.242 95.3984 198.803 98.1328 197.924 100.379C197.012 102.625 195.873 104.497 194.506 105.994C193.139 107.492 191.592 108.663 189.867 109.51C188.24 110.356 186.579 111.007 184.887 111.463C183.292 111.886 181.843 112.146 180.541 112.244C179.239 112.342 178.279 112.391 177.66 112.391H176C175.414 112.391 174.454 112.342 173.119 112.244C171.817 112.146 170.368 111.886 168.773 111.463C167.178 111.04 165.518 110.389 163.793 109.51C162.1 108.663 160.538 107.492 159.105 105.994C157.706 104.497 156.534 102.625 155.59 100.379C154.678 98.1328 154.223 95.3984 154.223 92.1758ZM170.434 62.1953V94.0312C170.466 95.1706 170.743 96.2285 171.264 97.2051C171.687 98.0189 172.322 98.7513 173.168 99.4023C174.047 100.053 175.284 100.379 176.879 100.379C178.441 100.379 179.646 100.053 180.492 99.4023C181.339 98.7513 181.973 98.0189 182.396 97.2051C182.852 96.2285 183.129 95.1706 183.227 94.0312V62.1953C183.129 61.056 182.852 59.998 182.396 59.0215C181.973 58.2402 181.339 57.5241 180.492 56.873C179.646 56.1895 178.441 55.8477 176.879 55.8477C175.284 55.8477 174.047 56.1895 173.168 56.873C172.322 57.5241 171.687 58.2402 171.264 59.0215C170.743 59.9655 170.466 61.0234 170.434 62.1953ZM205.793 43.6406H230.598C232.551 43.6406 234.374 43.7871 236.066 44.0801C237.759 44.3405 239.126 44.959 240.168 45.9355C241.21 46.9121 241.73 48.4583 241.73 50.5742C241.73 52.6576 241.21 54.1875 240.168 55.1641C239.126 56.1406 237.759 56.7754 236.066 57.0684C234.374 57.3613 232.551 57.5078 230.598 57.5078H225.617V100.867C225.617 102.951 225.487 104.839 225.227 106.531C224.966 108.224 224.315 109.559 223.273 110.535C222.264 111.512 220.572 112 218.195 112C215.852 112 214.159 111.512 213.117 110.535C212.076 109.559 211.424 108.224 211.164 106.531C210.904 104.839 210.773 102.951 210.773 100.867V57.5078H205.793C203.872 57.5078 202.049 57.3613 200.324 57.0684C198.632 56.7754 197.264 56.1406 196.223 55.1641C195.181 54.1875 194.66 52.6576 194.66 50.5742C194.66 48.4583 195.181 46.9121 196.223 45.9355C197.264 44.959 198.632 44.3405 200.324 44.0801C202.049 43.7871 203.872 43.6406 205.793 43.6406ZM242.324 100.77V54.8711C242.324 52.7878 242.503 50.8997 242.861 49.207C243.219 47.5143 243.968 46.1634 245.107 45.1543C246.279 44.1452 248.053 43.6406 250.43 43.6406C252.806 43.6406 254.564 44.1452 255.703 45.1543C256.875 46.1634 257.64 47.5143 257.998 49.207C258.356 50.8997 258.535 52.7878 258.535 54.8711V100.77C258.535 102.885 258.356 104.806 257.998 106.531C257.673 108.224 256.924 109.559 255.752 110.535C254.613 111.512 252.839 112 250.43 112C248.086 112 246.328 111.512 245.156 110.535C244.017 109.526 243.252 108.175 242.861 106.482C242.503 104.79 242.324 102.885 242.324 100.77ZM263.719 92.1758V62.9766C263.719 59.7865 264.174 57.1172 265.086 54.9688C265.997 52.7552 267.169 50.916 268.602 49.4512C270.034 47.9863 271.596 46.847 273.289 46.0332C274.135 45.61 274.965 45.252 275.779 44.959C276.626 44.666 277.456 44.4056 278.27 44.1777C279.897 43.7546 281.346 43.4941 282.615 43.3965C283.917 43.2988 284.878 43.25 285.496 43.25H287.156C287.775 43.25 288.735 43.2988 290.037 43.3965C291.339 43.4941 292.788 43.7546 294.383 44.1777C296.01 44.5684 297.671 45.1868 299.363 46.0332C300.991 46.8145 302.537 47.9701 304.002 49.5C305.369 50.9648 306.492 52.804 307.371 55.0176C308.283 57.1986 308.738 59.8516 308.738 62.9766V92.1758C308.738 95.3984 308.299 98.1328 307.42 100.379C306.508 102.625 305.369 104.497 304.002 105.994C302.635 107.492 301.089 108.663 299.363 109.51C297.736 110.356 296.076 111.007 294.383 111.463C292.788 111.886 291.339 112.146 290.037 112.244C288.735 112.342 287.775 112.391 287.156 112.391H285.496C284.91 112.391 283.95 112.342 282.615 112.244C281.313 112.146 279.865 111.886 278.27 111.463C276.674 111.04 275.014 110.389 273.289 109.51C271.596 108.663 270.034 107.492 268.602 105.994C267.202 104.497 266.03 102.625 265.086 100.379C264.174 98.1328 263.719 95.3984 263.719 92.1758ZM279.93 62.1953V94.0312C279.962 95.1706 280.239 96.2285 280.76 97.2051C281.183 98.0189 281.818 98.7513 282.664 99.4023C283.543 100.053 284.78 100.379 286.375 100.379C287.938 100.379 289.142 100.053 289.988 99.4023C290.835 98.7513 291.469 98.0189 291.893 97.2051C292.348 96.2285 292.625 95.1706 292.723 94.0312V62.1953C292.625 61.056 292.348 59.998 291.893 59.0215C291.469 58.2402 290.835 57.5241 289.988 56.873C289.142 56.1895 287.938 55.8477 286.375 55.8477C284.78 55.8477 283.543 56.1895 282.664 56.873C281.818 57.5241 281.183 58.2402 280.76 59.0215C280.239 59.9655 279.962 61.0234 279.93 62.1953ZM334.918 49.6953L350.445 91.7852H351.617V51.2578C351.617 48.9466 352.008 47.1074 352.789 45.7402C353.603 44.3405 355.393 43.6406 358.16 43.6406C361.253 43.6406 363.222 44.3079 364.068 45.6426C364.947 46.9772 365.387 48.849 365.387 51.2578V100.77C365.387 102.885 365.257 104.806 364.996 106.531C364.768 108.224 364.15 109.559 363.141 110.535C362.132 111.512 360.471 112 358.16 112H351.715C349.859 112 348.346 111.561 347.174 110.682C346.002 109.803 345.074 108.729 344.391 107.459C343.707 106.189 343.154 104.969 342.73 103.797L327.984 63.8555H326.812V104.383C326.812 106.694 326.422 108.549 325.641 109.949C324.859 111.316 323.069 112 320.27 112C317.145 112 315.143 111.333 314.264 109.998C313.385 108.663 312.945 106.792 312.945 104.383V54.8711C312.945 52.7552 313.059 50.8509 313.287 49.1582C313.548 47.4655 314.199 46.1309 315.24 45.1543C316.282 44.1452 317.958 43.6406 320.27 43.6406H326.715C328.342 43.6406 329.661 43.9661 330.67 44.6172C331.712 45.2357 332.558 45.9193 333.209 46.668C333.86 47.4492 334.43 48.4583 334.918 49.6953Z" fill="white"/>
<ellipse cx="7.5" cy="8.5" rx="7.5" ry="8.5" transform="matrix(1 0 0 -1 175 72)" fill="white"/>
<ellipse cx="7.5" cy="8.5" rx="7.5" ry="8.5" transform="matrix(1 0 0 -1 286 72)" fill="white"/>
</g>
<defs>
<clipPath id="clip0_0_1">
<rect width="385" height="203" fill="white"/>
</clipPath>
</defs>
</svg>
