<svg width="337" height="308" viewBox="0 0 337 308" fill="none" xmlns="http://www.w3.org/2000/svg">
<rect width="337" height="308" fill="#1E1E1E"/>
<g clip-path="url(#clip0_0_1)">
<path d="M53.2373 185V111.953H75.4834L81.626 156.487L87.7271 111.953H110.181V185H96.8164V132.373L88.4326 185H75.3174L66.4355 132.373V185H53.2373ZM134.087 185.664C128.249 185.664 123.78 183.907 120.681 180.393C117.61 176.851 116.074 171.746 116.074 165.078V130.381C116.074 124.128 117.596 119.382 120.64 116.145C123.711 112.908 128.193 111.289 134.087 111.289C139.98 111.289 144.449 112.908 147.493 116.145C150.564 119.382 152.1 124.128 152.1 130.381V165.078C152.1 171.746 150.55 176.851 147.451 180.393C144.38 183.907 139.925 185.664 134.087 185.664ZM134.211 172.217C136.425 172.217 137.532 170.072 137.532 165.784V130.132C137.532 126.535 136.453 124.736 134.294 124.736C131.86 124.736 130.642 126.576 130.642 130.256V165.867C130.642 168.136 130.919 169.768 131.472 170.764C132.026 171.733 132.939 172.217 134.211 172.217ZM164.26 185V125.981H155.586V111.953H187.544V125.981H178.87V185H164.26ZM190.947 185V111.953H205.059V185H190.947ZM228.301 185.664C222.463 185.664 217.994 183.907 214.895 180.393C211.824 176.851 210.288 171.746 210.288 165.078V130.381C210.288 124.128 211.81 119.382 214.854 116.145C217.925 112.908 222.407 111.289 228.301 111.289C234.194 111.289 238.663 112.908 241.707 116.145C244.778 119.382 246.313 124.128 246.313 130.381V165.078C246.313 171.746 244.764 176.851 241.665 180.393C238.594 183.907 234.139 185.664 228.301 185.664ZM228.425 172.217C230.639 172.217 231.746 170.072 231.746 165.784V130.132C231.746 126.535 230.667 124.736 228.508 124.736C226.073 124.736 224.856 126.576 224.856 130.256V165.867C224.856 168.136 225.133 169.768 225.686 170.764C226.239 171.733 227.153 172.217 228.425 172.217ZM252.207 185V111.953H267.231L273.955 146.941V111.953H288.066V185H273.789L266.484 148.477V185H252.207Z" fill="white"/>
<path d="M210 85.7627L136.953 85.7627V56.5439H151.064V70.9043H165.3V57.125L179.038 57.125V70.9043H195.764V55.5894H210V85.7627Z" fill="white"/>
<path d="M56.5 212H286.5" stroke="white" stroke-width="5"/>
<path d="M80 230H256.5" stroke="white" stroke-width="5"/>
<path d="M112 246.5H224.5" stroke="white" stroke-width="5"/>
<path d="M55.5 95.5H285.5" stroke="white" stroke-width="5"/>
<path d="M77.5 81.0001C96.7034 66.7004 106.259 68.1684 122 81.0001" stroke="white" stroke-width="5"/>
<path d="M219 81.1817C238.203 66.882 247.759 68.35 263.5 81.1817" stroke="white" stroke-width="5"/>
<path d="M172 50V36.5" stroke="white" stroke-width="12"/>
</g>
<defs>
<clipPath id="clip0_0_1">
<rect width="337" height="308" fill="white"/>
</clipPath>
</defs>
</svg>
