<svg width="334" height="184" viewBox="0 0 334 184" fill="none" xmlns="http://www.w3.org/2000/svg">
<mask id="path-1-outside-1_27_91" maskUnits="userSpaceOnUse" x="17" y="36" width="301" height="112" fill="black">
<rect fill="white" x="17" y="36" width="301" height="112"/>
<path fill-rule="evenodd" clip-rule="evenodd" d="M137.156 79.4941C134.171 75.7799 132.679 70.6758 132.679 64.1816C132.679 57.528 134.194 52.3669 137.225 48.6982C137.972 47.7934 138.803 47.0002 139.717 46.3185C140.81 45.5029 142.183 46.7848 142.082 48.1452C142.063 48.4074 142.053 48.6726 142.053 48.9404C142.053 54.1871 145.858 58.4404 150.553 58.4404C155.247 58.4404 159.053 54.1871 159.053 48.9404C159.053 48.7518 159.048 48.5644 159.038 48.3784C158.967 47.0075 160.383 45.7544 161.447 46.6215C162.197 47.2321 162.884 47.9244 163.509 48.6982C166.494 52.3669 167.987 57.528 167.987 64.1816C167.987 70.6986 166.505 75.8027 163.543 79.4941C160.604 83.1855 156.217 85.0312 150.384 85.0312C144.551 85.0312 140.141 83.1855 137.156 79.4941ZM172.703 74.7432C173.774 71.5531 174.31 68.0326 174.31 64.1816C174.31 56.138 172.191 49.7692 167.952 45.0752C163.737 40.3584 157.892 38 150.418 38C142.83 38 136.929 40.3356 132.713 45.0068C128.498 49.6781 126.39 56.0583 126.39 64.1475C126.39 69.3883 127.29 73.957 129.09 77.8535C130.913 81.7272 133.636 84.7578 137.259 86.9453C140.905 89.11 145.28 90.1924 150.384 90.1924C154.167 90.1924 157.573 89.5658 160.604 88.3125C163.634 87.0365 166.141 85.2591 168.123 82.9805C170.128 80.679 171.655 77.9333 172.703 74.7432ZM194.976 87.9404C194.976 88.7689 194.305 89.4404 193.476 89.4404H190.529C189.7 89.4404 189.029 88.7689 189.029 87.9404V45.6182C189.029 44.7897 188.357 44.1182 187.529 44.1182H174.977C174.149 44.1182 173.477 43.4466 173.477 42.6182V40.3887C173.477 39.5602 174.149 38.8887 174.977 38.8887H209.028C209.856 38.8887 210.528 39.5602 210.528 40.3887V42.6182C210.528 43.4466 209.856 44.1182 209.028 44.1182H196.476C195.648 44.1182 194.976 44.7897 194.976 45.6182V87.9404ZM212.156 87.9404C212.156 88.7689 212.828 89.4404 213.656 89.4404H216.569C217.398 89.4404 218.069 88.7689 218.069 87.9404V40.3887C218.069 39.5602 217.398 38.8887 216.569 38.8887H213.656C212.828 38.8887 212.156 39.5602 212.156 40.3887V87.9404ZM308.618 88.7665C308.895 89.1873 309.366 89.4404 309.87 89.4404H314.262C315.09 89.4404 315.762 88.7689 315.762 87.9404V40.3887C315.762 39.5602 315.09 38.8887 314.262 38.8887H311.759C310.93 38.8887 310.259 39.5602 310.259 40.3887V68.4199C310.259 69.3961 310.317 72.6221 310.434 78.098C310.454 79.0059 309.295 79.4041 308.755 78.6738V78.6738L282.881 39.5611C282.604 39.1412 282.134 38.8887 281.63 38.8887H277.34C276.511 38.8887 275.84 39.5602 275.84 40.3887V87.9404C275.84 88.7689 276.511 89.4404 277.34 89.4404H279.877C280.705 89.4404 281.377 88.7689 281.377 87.9404V60.1143C281.377 57.1342 281.32 53.8321 281.205 50.2079C281.178 49.3348 282.3 48.9479 282.812 49.6553V49.6553L308.618 88.7665ZM94.4066 86.3301C93.8072 86.3301 93.2653 85.9732 93.0286 85.4225L77.9012 50.2363V50.2363C77.6503 49.5694 76.6599 49.7595 76.6737 50.4719L76.8416 59.1572V87.9404C76.8416 88.7689 76.17 89.4404 75.3416 89.4404H72.8045C71.9761 89.4404 71.3045 88.7689 71.3045 87.9404V40.3887C71.3045 39.5602 71.9761 38.8887 72.8045 38.8887H77.9794C78.5755 38.8887 79.115 39.2416 79.3538 39.7878L95.1822 75.9932C95.7073 77.1944 97.4123 77.1914 97.9331 75.9883L113.604 39.7927C113.841 39.2439 114.382 38.8887 114.98 38.8887H119.946C120.775 38.8887 121.446 39.5602 121.446 40.3887V87.9404C121.446 88.7689 120.775 89.4404 119.946 89.4404H117.204C116.375 89.4404 115.704 88.7689 115.704 87.9404V59.0205L115.87 50.5967C115.884 49.9028 114.917 49.7214 114.679 50.373V50.373L99.5856 85.4233C99.3486 85.9736 98.807 86.3301 98.2079 86.3301H94.4066ZM51.6937 67.4287C50.8653 67.4287 50.1937 68.1003 50.1937 68.9287V70.9531C50.1937 71.7816 50.8653 72.4531 51.6937 72.4531H65.7836C66.612 72.4531 67.2836 71.7816 67.2836 70.9531V68.9287C67.2836 68.1003 66.612 67.4287 65.7836 67.4287H51.6937ZM20.5 89.4404C19.6716 89.4404 19 88.7689 19 87.9404V40.3887C19 39.5602 19.6716 38.8887 20.5 38.8887H46.4142C47.2695 38.8887 47.9517 39.6028 47.9126 40.4572L47.8106 42.6867C47.774 43.4877 47.1139 44.1182 46.3122 44.1182H26.4131C25.5847 44.1182 24.9131 44.7897 24.9131 45.6182V59.1611C24.9131 59.9896 25.5847 60.6611 26.4131 60.6611H45.1172C45.9456 60.6611 46.6172 61.3327 46.6172 62.1611V64.3223C46.6172 65.1507 45.9456 65.8223 45.1172 65.8223H26.4131C25.5847 65.8223 24.9131 66.4938 24.9131 67.3223V82.7109C24.9131 83.5394 25.5847 84.2109 26.4131 84.2109H46.9166C47.7758 84.2109 48.4594 84.9312 48.4145 85.7893L48.298 88.0188C48.2563 88.8157 47.598 89.4404 46.8 89.4404H20.5ZM226.099 50.7416C225.309 50.991 224.868 51.8377 225.159 52.613C228.768 62.2039 236.841 67.1904 245.178 67.1904C253.497 67.1904 261.763 62.2303 265.843 52.7003C266.17 51.9387 265.768 51.0725 264.991 50.7861L263.114 50.0947C262.337 49.8083 261.479 50.2101 261.145 50.9681C257.79 58.5755 251.346 62.1904 245.178 62.1904C239.04 62.1904 232.867 58.6176 229.935 51.1034C229.634 50.3316 228.796 49.8898 228.006 50.1393L226.099 50.7416ZM122.08 99.4404C118.776 99.4404 116.865 103.25 118.932 105.892C132.291 122.968 144.485 133.011 165.18 139.3C173.453 141.814 183.035 143.715 194.522 145.263C196.927 145.587 199.053 143.714 199.053 141.301V103.44C199.053 101.231 197.262 99.4404 195.053 99.4404H122.08ZM163.053 130.19C163.053 131.222 162.032 131.945 161.065 131.584C147.449 126.498 137.993 119.194 128.291 107.871C127.468 106.909 128.16 105.44 129.426 105.44H161.553C162.381 105.44 163.053 106.112 163.053 106.94V130.19ZM170.145 134.487C169.498 134.31 169.053 133.72 169.053 133.048V106.94C169.053 106.112 169.724 105.44 170.553 105.44H191.553C192.381 105.44 193.053 106.112 193.053 106.94V137.274C193.053 138.187 192.245 138.888 191.342 138.754C183.268 137.557 176.297 136.164 170.145 134.487ZM265.234 123.434C259.101 118.226 252.123 114.343 242.18 111.322C234.407 108.959 225.281 107.127 214.15 105.614C213.329 105.502 212.75 104.749 212.857 103.928L213.248 100.953C213.356 100.132 214.11 99.5532 214.931 99.6647C226.265 101.204 235.737 103.093 243.925 105.581C254.572 108.816 262.297 113.069 269.118 118.861C275.562 124.334 281.119 131.12 287.518 139.424C288.023 140.08 287.9 141.023 287.243 141.527L284.863 143.354C284.205 143.858 283.263 143.732 282.757 143.076C276.374 134.794 271.157 128.465 265.234 123.434ZM241.571 86.6501C241.433 84.9574 242.061 82.3803 244.005 78.8453C244.535 77.883 245.885 77.8778 246.403 78.8462C248.049 81.9201 248.653 84.5025 248.539 86.352C248.463 87.5968 248.076 88.4029 247.592 88.9091C247.165 89.3556 246.495 89.7451 245.436 89.8974C245.3 89.9171 245.16 89.9126 245.024 89.8866C243.795 89.651 243.002 89.2356 242.511 88.7851C242.012 88.3261 241.655 87.6764 241.571 86.6501ZM247.966 72.0154C246.543 70.0825 243.668 70.1598 242.325 72.1039C238.308 77.9179 236.255 82.9906 236.588 87.0575C236.762 89.196 237.603 91.0647 239.128 92.4664C240.613 93.8309 242.556 94.5805 244.671 94.8974C244.928 94.9358 245.195 94.9457 245.461 94.9238C247.727 94.7374 249.733 93.9049 251.206 92.3646C252.671 90.8321 253.398 88.8204 253.53 86.6576C253.789 82.4239 251.825 77.2584 247.966 72.0154Z"/>
</mask>
<path fill-rule="evenodd" clip-rule="evenodd" d="M137.156 79.4941C134.171 75.7799 132.679 70.6758 132.679 64.1816C132.679 57.528 134.194 52.3669 137.225 48.6982C137.972 47.7934 138.803 47.0002 139.717 46.3185C140.81 45.5029 142.183 46.7848 142.082 48.1452C142.063 48.4074 142.053 48.6726 142.053 48.9404C142.053 54.1871 145.858 58.4404 150.553 58.4404C155.247 58.4404 159.053 54.1871 159.053 48.9404C159.053 48.7518 159.048 48.5644 159.038 48.3784C158.967 47.0075 160.383 45.7544 161.447 46.6215C162.197 47.2321 162.884 47.9244 163.509 48.6982C166.494 52.3669 167.987 57.528 167.987 64.1816C167.987 70.6986 166.505 75.8027 163.543 79.4941C160.604 83.1855 156.217 85.0312 150.384 85.0312C144.551 85.0312 140.141 83.1855 137.156 79.4941ZM172.703 74.7432C173.774 71.5531 174.31 68.0326 174.31 64.1816C174.31 56.138 172.191 49.7692 167.952 45.0752C163.737 40.3584 157.892 38 150.418 38C142.83 38 136.929 40.3356 132.713 45.0068C128.498 49.6781 126.39 56.0583 126.39 64.1475C126.39 69.3883 127.29 73.957 129.09 77.8535C130.913 81.7272 133.636 84.7578 137.259 86.9453C140.905 89.11 145.28 90.1924 150.384 90.1924C154.167 90.1924 157.573 89.5658 160.604 88.3125C163.634 87.0365 166.141 85.2591 168.123 82.9805C170.128 80.679 171.655 77.9333 172.703 74.7432ZM194.976 87.9404C194.976 88.7689 194.305 89.4404 193.476 89.4404H190.529C189.7 89.4404 189.029 88.7689 189.029 87.9404V45.6182C189.029 44.7897 188.357 44.1182 187.529 44.1182H174.977C174.149 44.1182 173.477 43.4466 173.477 42.6182V40.3887C173.477 39.5602 174.149 38.8887 174.977 38.8887H209.028C209.856 38.8887 210.528 39.5602 210.528 40.3887V42.6182C210.528 43.4466 209.856 44.1182 209.028 44.1182H196.476C195.648 44.1182 194.976 44.7897 194.976 45.6182V87.9404ZM212.156 87.9404C212.156 88.7689 212.828 89.4404 213.656 89.4404H216.569C217.398 89.4404 218.069 88.7689 218.069 87.9404V40.3887C218.069 39.5602 217.398 38.8887 216.569 38.8887H213.656C212.828 38.8887 212.156 39.5602 212.156 40.3887V87.9404ZM308.618 88.7665C308.895 89.1873 309.366 89.4404 309.87 89.4404H314.262C315.09 89.4404 315.762 88.7689 315.762 87.9404V40.3887C315.762 39.5602 315.09 38.8887 314.262 38.8887H311.759C310.93 38.8887 310.259 39.5602 310.259 40.3887V68.4199C310.259 69.3961 310.317 72.6221 310.434 78.098C310.454 79.0059 309.295 79.4041 308.755 78.6738V78.6738L282.881 39.5611C282.604 39.1412 282.134 38.8887 281.63 38.8887H277.34C276.511 38.8887 275.84 39.5602 275.84 40.3887V87.9404C275.84 88.7689 276.511 89.4404 277.34 89.4404H279.877C280.705 89.4404 281.377 88.7689 281.377 87.9404V60.1143C281.377 57.1342 281.32 53.8321 281.205 50.2079C281.178 49.3348 282.3 48.9479 282.812 49.6553V49.6553L308.618 88.7665ZM94.4066 86.3301C93.8072 86.3301 93.2653 85.9732 93.0286 85.4225L77.9012 50.2363V50.2363C77.6503 49.5694 76.6599 49.7595 76.6737 50.4719L76.8416 59.1572V87.9404C76.8416 88.7689 76.17 89.4404 75.3416 89.4404H72.8045C71.9761 89.4404 71.3045 88.7689 71.3045 87.9404V40.3887C71.3045 39.5602 71.9761 38.8887 72.8045 38.8887H77.9794C78.5755 38.8887 79.115 39.2416 79.3538 39.7878L95.1822 75.9932C95.7073 77.1944 97.4123 77.1914 97.9331 75.9883L113.604 39.7927C113.841 39.2439 114.382 38.8887 114.98 38.8887H119.946C120.775 38.8887 121.446 39.5602 121.446 40.3887V87.9404C121.446 88.7689 120.775 89.4404 119.946 89.4404H117.204C116.375 89.4404 115.704 88.7689 115.704 87.9404V59.0205L115.87 50.5967C115.884 49.9028 114.917 49.7214 114.679 50.373V50.373L99.5856 85.4233C99.3486 85.9736 98.807 86.3301 98.2079 86.3301H94.4066ZM51.6937 67.4287C50.8653 67.4287 50.1937 68.1003 50.1937 68.9287V70.9531C50.1937 71.7816 50.8653 72.4531 51.6937 72.4531H65.7836C66.612 72.4531 67.2836 71.7816 67.2836 70.9531V68.9287C67.2836 68.1003 66.612 67.4287 65.7836 67.4287H51.6937ZM20.5 89.4404C19.6716 89.4404 19 88.7689 19 87.9404V40.3887C19 39.5602 19.6716 38.8887 20.5 38.8887H46.4142C47.2695 38.8887 47.9517 39.6028 47.9126 40.4572L47.8106 42.6867C47.774 43.4877 47.1139 44.1182 46.3122 44.1182H26.4131C25.5847 44.1182 24.9131 44.7897 24.9131 45.6182V59.1611C24.9131 59.9896 25.5847 60.6611 26.4131 60.6611H45.1172C45.9456 60.6611 46.6172 61.3327 46.6172 62.1611V64.3223C46.6172 65.1507 45.9456 65.8223 45.1172 65.8223H26.4131C25.5847 65.8223 24.9131 66.4938 24.9131 67.3223V82.7109C24.9131 83.5394 25.5847 84.2109 26.4131 84.2109H46.9166C47.7758 84.2109 48.4594 84.9312 48.4145 85.7893L48.298 88.0188C48.2563 88.8157 47.598 89.4404 46.8 89.4404H20.5ZM226.099 50.7416C225.309 50.991 224.868 51.8377 225.159 52.613C228.768 62.2039 236.841 67.1904 245.178 67.1904C253.497 67.1904 261.763 62.2303 265.843 52.7003C266.17 51.9387 265.768 51.0725 264.991 50.7861L263.114 50.0947C262.337 49.8083 261.479 50.2101 261.145 50.9681C257.79 58.5755 251.346 62.1904 245.178 62.1904C239.04 62.1904 232.867 58.6176 229.935 51.1034C229.634 50.3316 228.796 49.8898 228.006 50.1393L226.099 50.7416ZM122.08 99.4404C118.776 99.4404 116.865 103.25 118.932 105.892C132.291 122.968 144.485 133.011 165.18 139.3C173.453 141.814 183.035 143.715 194.522 145.263C196.927 145.587 199.053 143.714 199.053 141.301V103.44C199.053 101.231 197.262 99.4404 195.053 99.4404H122.08ZM163.053 130.19C163.053 131.222 162.032 131.945 161.065 131.584C147.449 126.498 137.993 119.194 128.291 107.871C127.468 106.909 128.16 105.44 129.426 105.44H161.553C162.381 105.44 163.053 106.112 163.053 106.94V130.19ZM170.145 134.487C169.498 134.31 169.053 133.72 169.053 133.048V106.94C169.053 106.112 169.724 105.44 170.553 105.44H191.553C192.381 105.44 193.053 106.112 193.053 106.94V137.274C193.053 138.187 192.245 138.888 191.342 138.754C183.268 137.557 176.297 136.164 170.145 134.487ZM265.234 123.434C259.101 118.226 252.123 114.343 242.18 111.322C234.407 108.959 225.281 107.127 214.15 105.614C213.329 105.502 212.75 104.749 212.857 103.928L213.248 100.953C213.356 100.132 214.11 99.5532 214.931 99.6647C226.265 101.204 235.737 103.093 243.925 105.581C254.572 108.816 262.297 113.069 269.118 118.861C275.562 124.334 281.119 131.12 287.518 139.424C288.023 140.08 287.9 141.023 287.243 141.527L284.863 143.354C284.205 143.858 283.263 143.732 282.757 143.076C276.374 134.794 271.157 128.465 265.234 123.434ZM241.571 86.6501C241.433 84.9574 242.061 82.3803 244.005 78.8453C244.535 77.883 245.885 77.8778 246.403 78.8462C248.049 81.9201 248.653 84.5025 248.539 86.352C248.463 87.5968 248.076 88.4029 247.592 88.9091C247.165 89.3556 246.495 89.7451 245.436 89.8974C245.3 89.9171 245.16 89.9126 245.024 89.8866C243.795 89.651 243.002 89.2356 242.511 88.7851C242.012 88.3261 241.655 87.6764 241.571 86.6501ZM247.966 72.0154C246.543 70.0825 243.668 70.1598 242.325 72.1039C238.308 77.9179 236.255 82.9906 236.588 87.0575C236.762 89.196 237.603 91.0647 239.128 92.4664C240.613 93.8309 242.556 94.5805 244.671 94.8974C244.928 94.9358 245.195 94.9457 245.461 94.9238C247.727 94.7374 249.733 93.9049 251.206 92.3646C252.671 90.8321 253.398 88.8204 253.53 86.6576C253.789 82.4239 251.825 77.2584 247.966 72.0154Z" fill="url(#paint0_linear_27_91)"/>
<path d="M137.156 79.4941L135.598 80.747L135.601 80.7517L137.156 79.4941ZM137.225 48.6982L135.683 47.4245L135.683 47.4245L137.225 48.6982ZM163.509 48.6982L161.953 49.9547L161.958 49.9605L163.509 48.6982ZM163.543 79.4941L161.983 78.2424L161.979 78.2483L163.543 79.4941ZM172.703 74.7432L170.807 74.1066L170.803 74.1189L172.703 74.7432ZM167.952 45.0752L166.461 46.408L166.468 46.4155L167.952 45.0752ZM132.713 45.0068L131.228 43.6669L131.228 43.6669L132.713 45.0068ZM129.09 77.8535L127.274 78.6923L127.28 78.7051L129.09 77.8535ZM137.259 86.9453L136.225 88.6574C136.229 88.66 136.234 88.6625 136.238 88.665L137.259 86.9453ZM160.604 88.3125L161.368 90.1607L161.38 90.1558L160.604 88.3125ZM168.123 82.9805L166.615 81.6666L166.614 81.6677L168.123 82.9805ZM76.8416 59.1572H78.8416C78.8416 59.1443 78.8415 59.1314 78.8412 59.1186L76.8416 59.1572ZM115.704 59.0205L113.704 58.981C113.704 58.9941 113.704 59.0073 113.704 59.0205H115.704ZM118.932 105.892L117.357 107.125L117.357 107.125L118.932 105.892ZM165.18 139.3L164.599 141.214L164.599 141.214L165.18 139.3ZM194.522 145.263L194.789 143.281L194.789 143.281L194.522 145.263ZM242.18 111.322L242.762 109.408L242.762 109.408L242.18 111.322ZM265.234 123.434L263.939 124.959L263.939 124.959L265.234 123.434ZM243.925 105.581L244.506 103.667L244.506 103.667L243.925 105.581ZM269.118 118.861L267.823 120.386L267.823 120.386L269.118 118.861ZM241.571 86.6501L239.578 86.8131L239.578 86.8131L241.571 86.6501ZM248.539 86.352L246.543 86.2298L246.543 86.2298L248.539 86.352ZM247.592 88.9091L249.037 90.2913L249.037 90.2913L247.592 88.9091ZM242.511 88.7851L243.865 87.3126L243.865 87.3126L242.511 88.7851ZM242.325 72.1039L240.679 70.967L240.679 70.967L242.325 72.1039ZM247.966 72.0154L246.355 73.2011L246.355 73.2011L247.966 72.0154ZM236.588 87.0575L234.594 87.2205L234.594 87.2205L236.588 87.0575ZM239.128 92.4664L240.481 90.9939L240.481 90.9939L239.128 92.4664ZM244.671 94.8974L244.374 96.8753L244.374 96.8753L244.671 94.8974ZM245.461 94.9238L245.297 92.9306L245.297 92.9306L245.461 94.9238ZM251.206 92.3646L252.651 93.7468L252.651 93.7468L251.206 92.3646ZM253.53 86.6576L251.534 86.5354L251.534 86.5354L253.53 86.6576ZM245.436 89.8974L245.152 87.9178L245.436 89.8974ZM245.024 89.8866L244.648 91.8508L245.024 89.8866ZM244.005 78.8453L245.758 79.8093L244.005 78.8453ZM246.403 78.8462L248.166 77.9022L246.403 78.8462ZM284.863 143.354L283.645 141.767L284.863 143.354ZM282.757 143.076L281.173 144.297L282.757 143.076ZM287.518 139.424L289.102 138.203L287.518 139.424ZM287.243 141.527L288.46 143.114L287.243 141.527ZM213.248 100.953L215.231 101.214L213.248 100.953ZM170.145 134.487L169.619 136.416L170.145 134.487ZM161.065 131.584L160.366 133.457L161.065 131.584ZM128.291 107.871L129.81 106.57L128.291 107.871ZM229.935 51.1034L231.798 50.3765L229.935 51.1034ZM228.006 50.1393L228.609 52.0465L228.006 50.1393ZM263.114 50.0947L262.423 51.9714L263.114 50.0947ZM261.145 50.9681L262.975 51.775L261.145 50.9681ZM265.843 52.7003L264.005 51.9131L265.843 52.7003ZM264.991 50.7861L265.682 48.9095L264.991 50.7861ZM225.159 52.613L223.287 53.3174L225.159 52.613ZM226.099 50.7416L225.497 48.8344L226.099 50.7416ZM48.298 88.0188L46.3007 87.9143L48.298 88.0188ZM99.5856 85.4233L101.423 86.2143L99.5856 85.4233ZM115.87 50.5967L113.871 50.5571L115.87 50.5967ZM113.604 39.7927L111.768 38.9981L113.604 39.7927ZM95.1822 75.9932L93.3496 76.7944L95.1822 75.9932ZM79.3538 39.7878L77.5213 40.589L79.3538 39.7878ZM76.6737 50.4719L78.6733 50.4332L76.6737 50.4719ZM281.205 50.2079L279.206 50.2711L281.205 50.2079ZM282.881 39.5611L281.213 40.6645L282.881 39.5611ZM310.434 78.098L308.435 78.1408L310.434 78.098ZM308.618 88.7665L310.287 87.6651L308.618 88.7665ZM214.15 105.614L213.881 107.596L214.15 105.614ZM212.857 103.928L210.874 103.667L212.857 103.928ZM159.038 48.3784L157.041 48.4827L159.038 48.3784ZM47.8106 42.6867L49.8085 42.7781L47.8106 42.6867ZM93.0286 85.4225L94.866 84.6326L93.0286 85.4225ZM139.717 46.3185L138.521 44.7154L139.717 46.3185ZM142.082 48.1452L144.077 48.2931L142.082 48.1452ZM47.9126 40.4572L49.9105 40.5486L47.9126 40.4572ZM130.679 64.1816C130.679 70.9671 132.239 76.5678 135.598 80.747L138.715 78.2413C136.104 74.9921 134.679 70.3844 134.679 64.1816H130.679ZM135.683 47.4245C132.258 51.571 130.679 57.246 130.679 64.1816H134.679C134.679 57.81 136.131 53.1627 138.767 49.972L135.683 47.4245ZM138.521 44.7154C137.475 45.4954 136.529 46.4001 135.683 47.4245L138.767 49.972C139.415 49.1868 140.131 48.5049 140.913 47.9216L138.521 44.7154ZM144.053 48.9404C144.053 48.722 144.061 48.5061 144.077 48.2931L140.088 47.9973C140.064 48.3087 140.053 48.6232 140.053 48.9404H144.053ZM150.553 56.4404C147.166 56.4404 144.053 53.2976 144.053 48.9404H140.053C140.053 55.0767 144.55 60.4404 150.553 60.4404V56.4404ZM157.053 48.9404C157.053 53.2976 153.939 56.4404 150.553 56.4404V60.4404C156.555 60.4404 161.053 55.0767 161.053 48.9404H157.053ZM157.041 48.4827C157.049 48.6339 157.053 48.7865 157.053 48.9404H161.053C161.053 48.717 161.047 48.4948 161.035 48.2741L157.041 48.4827ZM165.065 47.4418C164.356 46.5631 163.571 45.7716 162.71 45.0708L160.184 48.1721C160.823 48.6926 161.413 49.2856 161.953 49.9547L165.065 47.4418ZM169.987 64.1816C169.987 57.2522 168.434 51.5818 165.06 47.436L161.958 49.9605C164.554 53.1519 165.987 57.8038 165.987 64.1816H169.987ZM165.103 80.7459C168.441 76.5865 169.987 70.9839 169.987 64.1816H165.987C165.987 70.4132 164.57 75.019 161.983 78.2424L165.103 80.7459ZM150.384 87.0312C156.668 87.0312 161.7 85.0195 165.108 80.74L161.979 78.2483C159.507 81.3516 155.767 83.0312 150.384 83.0312V87.0312ZM135.601 80.7517C139.052 85.0194 144.099 87.0312 150.384 87.0312V83.0312C145.002 83.0312 141.231 81.3517 138.712 78.2366L135.601 80.7517ZM172.31 64.1816C172.31 67.8469 171.8 71.1489 170.807 74.1066L174.599 75.3797C175.748 71.9572 176.31 68.2182 176.31 64.1816H172.31ZM166.468 46.4155C170.292 50.6503 172.31 56.494 172.31 64.1816H176.31C176.31 55.7821 174.09 48.8881 169.437 43.7349L166.468 46.4155ZM150.418 40C157.436 40 162.694 42.1934 166.461 46.4079L169.444 43.7424C164.779 38.5234 158.348 36 150.418 36V40ZM134.198 46.3468C137.957 42.1814 143.27 40 150.418 40V36C142.391 36 135.9 38.4898 131.228 43.6669L134.198 46.3468ZM128.39 64.1475C128.39 56.4076 130.4 50.5551 134.198 46.3468L131.228 43.6669C126.595 48.8011 124.39 55.7089 124.39 64.1475H128.39ZM130.906 77.0147C129.251 73.4327 128.39 69.1614 128.39 64.1475H124.39C124.39 69.6153 125.329 74.4814 127.274 78.6923L130.906 77.0147ZM138.293 85.2332C135.012 83.2522 132.557 80.5229 130.9 77.0019L127.28 78.7051C129.269 82.9315 132.26 86.2634 136.225 88.6574L138.293 85.2332ZM150.384 88.1924C145.566 88.1924 141.559 87.1727 138.28 85.2256L136.238 88.665C140.25 91.0474 144.994 92.1924 150.384 92.1924V88.1924ZM159.839 86.4643C157.085 87.6032 153.944 88.1924 150.384 88.1924V92.1924C154.389 92.1924 158.061 91.5283 161.368 90.1607L159.839 86.4643ZM166.614 81.6677C164.85 83.696 162.602 85.301 159.828 86.4692L161.38 90.1558C164.667 88.7719 167.432 86.8223 169.632 84.2932L166.614 81.6677ZM170.803 74.1189C169.83 77.0808 168.428 79.5859 166.615 81.6666L169.631 84.2943C171.829 81.7722 173.48 78.7858 174.603 75.3675L170.803 74.1189ZM190.529 91.4404H193.476V87.4404H190.529V91.4404ZM187.029 45.6182V87.9404H191.029V45.6182H187.029ZM174.977 46.1182H187.529V42.1182H174.977V46.1182ZM171.477 40.3887V42.6182H175.477V40.3887H171.477ZM209.028 36.8887H174.977V40.8887H209.028V36.8887ZM212.528 42.6182V40.3887H208.528V42.6182H212.528ZM196.476 46.1182H209.028V42.1182H196.476V46.1182ZM196.976 87.9404V45.6182H192.976V87.9404H196.976ZM216.569 87.4404H213.656V91.4404H216.569V87.4404ZM216.069 40.3887V87.9404H220.069V40.3887H216.069ZM213.656 40.8887H216.569V36.8887H213.656V40.8887ZM214.156 87.9404V40.3887H210.156V87.9404H214.156ZM314.262 87.4404H309.87V91.4404H314.262V87.4404ZM313.762 40.3887V87.9404H317.762V40.3887H313.762ZM311.759 40.8887H314.262V36.8887H311.759V40.8887ZM312.259 68.4199V40.3887H308.259V68.4199H312.259ZM312.434 78.0553C312.317 72.5668 312.259 69.3689 312.259 68.4199H308.259C308.259 69.4233 308.318 72.6774 308.435 78.1408L312.434 78.0553ZM281.213 40.6645L307.087 79.7773L310.423 77.5704L284.549 38.4577L281.213 40.6645ZM277.34 40.8887H281.63V36.8887H277.34V40.8887ZM277.84 87.9404V40.3887H273.84V87.9404H277.84ZM279.877 87.4404H277.34V91.4404H279.877V87.4404ZM279.377 60.1143V87.9404H283.377V60.1143H279.377ZM279.206 50.2711C279.32 53.8786 279.377 57.1592 279.377 60.1143H283.377C283.377 57.1093 283.319 53.7857 283.204 50.1448L279.206 50.2711ZM310.287 87.6651L284.482 48.5538L281.143 50.7567L306.948 89.868L310.287 87.6651ZM76.0638 51.0263L91.1912 86.2125L94.866 84.6326L79.7386 49.4464L76.0638 51.0263ZM78.8412 59.1186L78.6733 50.4332L74.674 50.5106L74.842 59.1959L78.8412 59.1186ZM78.8416 87.9404V59.1572H74.8416V87.9404H78.8416ZM72.8045 91.4404H75.3416V87.4404H72.8045V91.4404ZM69.3045 40.3887V87.9404H73.3045V40.3887H69.3045ZM77.9794 36.8887H72.8045V40.8887H77.9794V36.8887ZM97.0147 75.1921L81.1864 38.9867L77.5213 40.589L93.3496 76.7944L97.0147 75.1921ZM111.768 38.9981L96.0977 75.1937L99.7685 76.7829L115.439 40.5873L111.768 38.9981ZM119.946 36.8887H114.98V40.8887H119.946V36.8887ZM123.446 87.9404V40.3887H119.446V87.9404H123.446ZM117.204 91.4404H119.946V87.4404H117.204V91.4404ZM113.704 59.0205V87.9404H117.704V59.0205H113.704ZM113.871 50.5571L113.704 58.981L117.704 59.06L117.87 50.6362L113.871 50.5571ZM101.423 86.2143L116.515 51.164L112.842 49.582L97.7486 84.6323L101.423 86.2143ZM94.4066 88.3301H98.2079V84.3301H94.4066V88.3301ZM52.1937 70.9531V68.9287H48.1937V70.9531H52.1937ZM65.7836 70.4531H51.6937V74.4531H65.7836V70.4531ZM65.2836 68.9287V70.9531H69.2836V68.9287H65.2836ZM51.6937 69.4287H65.7836V65.4287H51.6937V69.4287ZM17 40.3887V87.9404H21V40.3887H17ZM46.4142 36.8887H20.5V40.8887H46.4142V36.8887ZM49.8085 42.7781L49.9105 40.5486L45.9147 40.3658L45.8127 42.5953L49.8085 42.7781ZM26.4131 46.1182H46.3122V42.1182H26.4131V46.1182ZM26.9131 59.1611V45.6182H22.9131V59.1611H26.9131ZM45.1172 58.6611H26.4131V62.6611H45.1172V58.6611ZM48.6172 64.3223V62.1611H44.6172V64.3223H48.6172ZM26.4131 67.8223H45.1172V63.8223H26.4131V67.8223ZM26.9131 82.7109V67.3223H22.9131V82.7109H26.9131ZM46.9166 82.2109H26.4131V86.2109H46.9166V82.2109ZM50.2952 88.1232L50.4118 85.8937L46.4173 85.6848L46.3007 87.9143L50.2952 88.1232ZM20.5 91.4404H46.8V87.4404H20.5V91.4404ZM245.178 65.1904C237.683 65.1904 230.35 60.7288 227.031 51.9086L223.287 53.3174C227.186 63.679 235.999 69.1904 245.178 69.1904V65.1904ZM264.005 51.9131C260.228 60.7333 252.669 65.1904 245.178 65.1904V69.1904C254.325 69.1904 263.298 63.7274 267.682 53.4875L264.005 51.9131ZM262.423 51.9714L264.3 52.6628L265.682 48.9095L263.806 48.218L262.423 51.9714ZM245.178 64.1904C252.161 64.1904 259.31 60.0869 262.975 51.775L259.315 50.1612C256.271 57.0641 250.532 60.1904 245.178 60.1904V64.1904ZM228.072 51.8303C231.302 60.1096 238.213 64.1904 245.178 64.1904V60.1904C239.867 60.1904 234.431 57.1256 231.798 50.3765L228.072 51.8303ZM226.701 52.6487L228.609 52.0465L227.404 48.2321L225.497 48.8344L226.701 52.6487ZM120.507 104.66C119.485 103.353 120.415 101.44 122.08 101.44V97.4404C117.137 97.4404 114.245 103.148 117.357 107.125L120.507 104.66ZM165.762 137.386C145.556 131.246 133.683 121.501 120.507 104.66L117.357 107.125C130.899 124.434 143.414 134.776 164.599 141.214L165.762 137.386ZM194.789 143.281C183.365 141.742 173.896 139.858 165.762 137.386L164.599 141.214C173.009 143.769 182.705 145.689 194.255 147.245L194.789 143.281ZM197.053 141.301C197.053 142.509 195.989 143.443 194.789 143.281L194.255 147.245C197.865 147.732 201.053 144.919 201.053 141.301H197.053ZM197.053 103.44V141.301H201.053V103.44H197.053ZM195.053 101.44C196.157 101.44 197.053 102.336 197.053 103.44H201.053C201.053 100.127 198.366 97.4404 195.053 97.4404V101.44ZM122.08 101.44H195.053V97.4404H122.08V101.44ZM126.773 109.172C136.65 120.701 146.375 128.232 160.366 133.457L161.765 129.71C148.524 124.765 139.335 117.688 129.81 106.57L126.773 109.172ZM161.553 103.44H129.426V107.44H161.553V103.44ZM165.053 130.19V106.94H161.053V130.19H165.053ZM167.053 106.94V133.048H171.053V106.94H167.053ZM191.553 103.44H170.553V107.44H191.553V103.44ZM195.053 137.274V106.94H191.053V137.274H195.053ZM169.619 136.416C175.867 138.12 182.92 139.527 191.049 140.733L191.636 136.776C183.616 135.587 176.726 134.209 170.672 132.557L169.619 136.416ZM241.599 113.235C251.307 116.185 258.035 119.945 263.939 124.959L266.528 121.91C260.166 116.507 252.94 112.501 242.762 109.408L241.599 113.235ZM213.881 107.596C224.949 109.1 233.962 110.915 241.599 113.235L242.762 109.408C234.852 107.004 225.613 105.153 214.42 103.632L213.881 107.596ZM211.265 100.693L210.874 103.667L214.84 104.188L215.231 101.214L211.265 100.693ZM244.506 103.667C236.182 101.138 226.597 99.2309 215.201 97.6829L214.662 101.647C225.933 103.177 235.292 105.048 243.343 107.495L244.506 103.667ZM270.412 117.337C263.363 111.35 255.389 106.974 244.506 103.667L243.343 107.495C253.756 110.659 261.232 114.788 267.823 120.386L270.412 117.337ZM289.102 138.203C282.7 129.896 277.033 122.959 270.412 117.337L267.823 120.386C274.091 125.709 279.537 132.344 285.933 140.645L289.102 138.203ZM286.08 144.94L288.46 143.114L286.025 139.941L283.645 141.767L286.08 144.94ZM263.939 124.959C269.686 129.84 274.792 136.018 281.173 144.297L284.341 141.855C277.956 133.571 272.628 127.09 266.528 121.91L263.939 124.959ZM242.253 77.8814C240.234 81.551 239.392 84.5448 239.578 86.8131L243.564 86.4871C243.473 85.37 243.887 83.2095 245.758 79.8093L242.253 77.8814ZM250.536 86.4742C250.679 84.1285 249.916 81.1701 248.166 77.9022L244.64 79.7901C246.182 82.67 246.626 84.8766 246.543 86.2298L250.536 86.4742ZM249.037 90.2913C249.912 89.3764 250.437 88.0893 250.536 86.4742L246.543 86.2298C246.49 87.1044 246.24 87.4294 246.146 87.5269L249.037 90.2913ZM245.721 91.877C247.16 91.6699 248.26 91.1039 249.037 90.2913L246.146 87.5269C246.07 87.6073 245.83 87.8202 245.152 87.9178L245.721 91.877ZM241.158 90.2576C241.991 91.0232 243.158 91.5653 244.648 91.8508L245.401 87.9223C244.432 87.7366 244.012 87.4481 243.865 87.3126L241.158 90.2576ZM239.578 86.8131C239.698 88.2867 240.25 89.4231 241.158 90.2576L243.865 87.3126C243.794 87.2477 243.742 87.1801 243.698 87.0857C243.651 86.9852 243.59 86.8032 243.564 86.4871L239.578 86.8131ZM243.97 73.2407C244.544 72.4097 245.758 72.3907 246.355 73.2011L249.576 70.8298C247.327 67.7743 242.791 67.9098 240.679 70.967L243.97 73.2407ZM238.581 86.8946C238.307 83.5491 240.013 78.9682 243.97 73.2407L240.679 70.967C236.603 76.8676 234.203 82.4321 234.594 87.2205L238.581 86.8946ZM240.481 90.9939C239.367 89.9698 238.72 88.5891 238.581 86.8946L234.594 87.2205C234.805 89.8029 235.839 92.1596 237.775 93.9389L240.481 90.9939ZM244.967 92.9194C243.117 92.6422 241.588 92.0107 240.481 90.9939L237.775 93.9389C239.637 95.6511 241.996 96.5189 244.374 96.8753L244.967 92.9194ZM245.297 92.9306C245.188 92.9395 245.074 92.9355 244.967 92.9194L244.374 96.8753C244.781 96.9362 245.203 96.9518 245.625 96.9171L245.297 92.9306ZM249.76 90.9824C248.687 92.1052 247.172 92.7763 245.297 92.9306L245.625 96.9171C248.283 96.6985 250.779 95.7047 252.651 93.7468L249.76 90.9824ZM251.534 86.5354C251.424 88.3323 250.832 89.8612 249.76 90.9824L252.651 93.7468C254.51 91.8029 255.372 89.3086 255.526 86.7798L251.534 86.5354ZM246.355 73.2011C250.079 78.2598 251.753 82.9629 251.534 86.5354L255.526 86.7798C255.826 81.8848 253.571 76.257 249.576 70.8298L246.355 73.2011ZM245.152 87.9178C245.246 87.9041 245.331 87.9089 245.401 87.9223L244.648 91.8508C244.989 91.9163 245.353 91.9301 245.721 91.877L245.152 87.9178ZM245.758 79.8093C245.541 80.2037 244.889 80.2545 244.64 79.7901L248.166 77.9022C246.881 75.5012 243.529 75.5623 242.253 77.8814L245.758 79.8093ZM283.645 141.767C283.868 141.596 284.177 141.643 284.341 141.855L281.173 144.297C282.348 145.822 284.543 146.12 286.08 144.94L283.645 141.767ZM285.933 140.645C285.764 140.424 285.805 140.109 286.025 139.941L288.46 143.114C289.995 141.937 290.283 139.736 289.102 138.203L285.933 140.645ZM215.231 101.214C215.195 101.487 214.943 101.685 214.662 101.647L215.201 97.6829C213.278 97.4218 211.517 98.7765 211.265 100.693L215.231 101.214ZM191.053 137.274C191.053 136.974 191.322 136.729 191.636 136.776L191.049 140.733C193.168 141.047 195.053 139.4 195.053 137.274H191.053ZM167.053 133.048C167.053 134.61 168.09 135.999 169.619 136.416L170.672 132.557C170.906 132.621 171.053 132.83 171.053 133.048H167.053ZM171.053 106.94C171.053 107.217 170.829 107.44 170.553 107.44V103.44C168.62 103.44 167.053 105.007 167.053 106.94H171.053ZM161.553 107.44C161.277 107.44 161.053 107.217 161.053 106.94H165.053C165.053 105.007 163.486 103.44 161.553 103.44V107.44ZM160.366 133.457C162.668 134.317 165.053 132.587 165.053 130.19H161.053C161.053 129.857 161.397 129.573 161.765 129.71L160.366 133.457ZM129.81 106.57C130.126 106.938 129.824 107.44 129.426 107.44V103.44C126.495 103.44 124.809 106.88 126.773 109.172L129.81 106.57ZM231.798 50.3765C231.146 48.705 229.28 47.6398 227.404 48.2321L228.609 52.0465C228.471 52.09 228.337 52.0668 228.248 52.0214C228.164 51.9787 228.103 51.9105 228.072 51.8303L231.798 50.3765ZM263.806 48.218C261.961 47.5385 260.042 48.5126 259.315 50.1612L262.975 51.775C262.939 51.8566 262.873 51.9236 262.786 51.963C262.693 52.0047 262.558 52.0213 262.423 51.9714L263.806 48.218ZM267.682 53.4875C268.484 51.6136 267.472 49.5689 265.682 48.9095L264.3 52.6628C264.065 52.5762 263.855 52.2639 264.005 51.9131L267.682 53.4875ZM227.031 51.9086C227.167 52.2705 226.939 52.5737 226.701 52.6487L225.497 48.8344C223.679 49.4084 222.568 51.4048 223.287 53.3174L227.031 51.9086ZM46.3007 87.9143C46.3146 87.6487 46.534 87.4404 46.8 87.4404V91.4404C48.662 91.4404 50.198 89.9826 50.2952 88.1232L46.3007 87.9143ZM46.9166 86.2109C46.6302 86.2109 46.4023 85.9708 46.4173 85.6848L50.4118 85.8937C50.5165 83.8916 48.9214 82.2109 46.9166 82.2109V86.2109ZM22.9131 82.7109C22.9131 84.6439 24.4801 86.2109 26.4131 86.2109V82.2109C26.6892 82.2109 26.9131 82.4348 26.9131 82.7109H22.9131ZM26.4131 63.8223C24.4801 63.8223 22.9131 65.3893 22.9131 67.3223H26.9131C26.9131 67.5984 26.6892 67.8223 26.4131 67.8223V63.8223ZM44.6172 64.3223C44.6172 64.0461 44.841 63.8223 45.1172 63.8223V67.8223C47.0502 67.8223 48.6172 66.2553 48.6172 64.3223H44.6172ZM45.1172 62.6611C44.841 62.6611 44.6172 62.4373 44.6172 62.1611H48.6172C48.6172 60.2281 47.0502 58.6611 45.1172 58.6611V62.6611ZM69.2836 68.9287C69.2836 66.9957 67.7166 65.4287 65.7836 65.4287V69.4287C65.5074 69.4287 65.2836 69.2049 65.2836 68.9287H69.2836ZM65.7836 74.4531C67.7166 74.4531 69.2836 72.8861 69.2836 70.9531H65.2836C65.2836 70.677 65.5074 70.4531 65.7836 70.4531V74.4531ZM52.1937 68.9287C52.1937 69.2049 51.9699 69.4287 51.6937 69.4287V65.4287C49.7608 65.4287 48.1937 66.9957 48.1937 68.9287H52.1937ZM48.1937 70.9531C48.1937 72.8861 49.7608 74.4531 51.6937 74.4531V70.4531C51.9699 70.4531 52.1937 70.677 52.1937 70.9531H48.1937ZM97.7486 84.6323C97.8276 84.4489 98.0082 84.3301 98.2079 84.3301V88.3301C99.6058 88.3301 100.87 87.4983 101.423 86.2143L97.7486 84.6323ZM117.87 50.6362C117.928 47.685 113.816 46.9134 112.801 49.6851L116.556 51.061C116.019 52.5293 113.84 52.1206 113.871 50.5571L117.87 50.6362ZM117.204 87.4404C117.48 87.4404 117.704 87.6643 117.704 87.9404H113.704C113.704 89.8734 115.271 91.4404 117.204 91.4404V87.4404ZM119.446 87.9404C119.446 87.6643 119.67 87.4404 119.946 87.4404V91.4404C121.879 91.4404 123.446 89.8734 123.446 87.9404H119.446ZM119.946 40.8887C119.67 40.8887 119.446 40.6648 119.446 40.3887H123.446C123.446 38.4557 121.879 36.8887 119.946 36.8887V40.8887ZM115.439 40.5873C115.36 40.7703 115.179 40.8887 114.98 40.8887V36.8887C113.585 36.8887 112.323 37.7176 111.768 38.9981L115.439 40.5873ZM93.3496 76.7944C94.575 79.5971 98.5532 79.5901 99.7685 76.7829L96.0977 75.1937C96.2713 74.7927 96.8397 74.7917 97.0147 75.1921L93.3496 76.7944ZM77.9794 40.8887C77.7807 40.8887 77.6009 40.771 77.5213 40.589L81.1864 38.9867C80.6292 37.7122 79.3703 36.8887 77.9794 36.8887V40.8887ZM73.3045 40.3887C73.3045 40.6648 73.0806 40.8887 72.8045 40.8887V36.8887C70.8715 36.8887 69.3045 38.4557 69.3045 40.3887H73.3045ZM74.8416 87.9404C74.8416 87.6643 75.0655 87.4404 75.3416 87.4404V91.4404C77.2746 91.4404 78.8416 89.8734 78.8416 87.9404H74.8416ZM79.7731 49.5321C78.7308 46.7618 74.6168 47.5512 74.674 50.5106L78.6733 50.4332C78.703 51.9677 76.5697 52.3771 76.0293 50.9406L79.7731 49.5321ZM283.204 50.1448C283.238 51.2219 281.849 51.7336 281.193 50.8288L284.432 48.4817C282.751 46.1622 279.117 47.4477 279.206 50.2711L283.204 50.1448ZM279.877 91.4404C281.81 91.4404 283.377 89.8734 283.377 87.9404H279.377C279.377 87.6643 279.601 87.4404 279.877 87.4404V91.4404ZM273.84 87.9404C273.84 89.8734 275.407 91.4404 277.34 91.4404V87.4404C277.616 87.4404 277.84 87.6643 277.84 87.9404H273.84ZM277.34 36.8887C275.407 36.8887 273.84 38.4557 273.84 40.3887H277.84C277.84 40.6648 277.616 40.8887 277.34 40.8887V36.8887ZM284.549 38.4577C283.901 37.4779 282.805 36.8887 281.63 36.8887V40.8887C281.462 40.8887 281.306 40.8045 281.213 40.6645L284.549 38.4577ZM308.435 78.1408C308.413 77.112 309.735 76.6353 310.363 77.485L307.147 79.8626C308.854 82.1728 312.495 80.8998 312.434 78.0553L308.435 78.1408ZM311.759 36.8887C309.826 36.8887 308.259 38.4557 308.259 40.3887H312.259C312.259 40.6648 312.035 40.8887 311.759 40.8887V36.8887ZM317.762 40.3887C317.762 38.4557 316.195 36.8887 314.262 36.8887V40.8887C313.986 40.8887 313.762 40.6648 313.762 40.3887H317.762ZM309.87 87.4404C310.038 87.4404 310.195 87.5248 310.287 87.6651L306.948 89.868C307.596 90.8497 308.694 91.4404 309.87 91.4404V87.4404ZM314.262 91.4404C316.195 91.4404 317.762 89.8734 317.762 87.9404H313.762C313.762 87.6643 313.986 87.4404 314.262 87.4404V91.4404ZM213.656 36.8887C211.723 36.8887 210.156 38.4557 210.156 40.3887H214.156C214.156 40.6648 213.932 40.8887 213.656 40.8887V36.8887ZM220.069 40.3887C220.069 38.4557 218.502 36.8887 216.569 36.8887V40.8887C216.293 40.8887 216.069 40.6648 216.069 40.3887H220.069ZM213.656 87.4404C213.932 87.4404 214.156 87.6643 214.156 87.9404H210.156C210.156 89.8734 211.723 91.4404 213.656 91.4404V87.4404ZM216.569 91.4404C218.502 91.4404 220.069 89.8734 220.069 87.9404H216.069C216.069 87.6643 216.293 87.4404 216.569 87.4404V91.4404ZM72.8045 87.4404C73.0806 87.4404 73.3045 87.6643 73.3045 87.9404H69.3045C69.3045 89.8734 70.8715 91.4404 72.8045 91.4404V87.4404ZM214.42 103.632C214.682 103.668 214.877 103.909 214.84 104.188L210.874 103.667C210.622 105.589 211.977 107.337 213.881 107.596L214.42 103.632ZM161.035 48.2741C161.036 48.2896 161.032 48.2806 161.045 48.2538C161.059 48.2236 161.072 48.2178 161.053 48.2325C161.037 48.2458 160.932 48.3217 160.732 48.3338C160.63 48.34 160.519 48.3274 160.412 48.2923C160.305 48.2573 160.229 48.2089 160.184 48.1721L162.71 45.0708C161.279 43.9044 159.602 44.2851 158.58 45.0889C157.622 45.8424 156.969 47.1094 157.041 48.4827L161.035 48.2741ZM196.476 42.1182C194.543 42.1182 192.976 43.6852 192.976 45.6182H196.976C196.976 45.8943 196.752 46.1182 196.476 46.1182V42.1182ZM22.9131 59.1611C22.9131 61.0941 24.4801 62.6611 26.4131 62.6611V58.6611C26.6892 58.6611 26.9131 58.885 26.9131 59.1611H22.9131ZM209.028 40.8887C208.752 40.8887 208.528 40.6648 208.528 40.3887H212.528C212.528 38.4557 210.961 36.8887 209.028 36.8887V40.8887ZM26.4131 42.1182C24.4801 42.1182 22.9131 43.6852 22.9131 45.6182H26.9131C26.9131 45.8943 26.6892 46.1182 26.4131 46.1182V42.1182ZM175.477 40.3887C175.477 40.6648 175.253 40.8887 174.977 40.8887V36.8887C173.044 36.8887 171.477 38.4557 171.477 40.3887H175.477ZM45.8127 42.5953C45.8249 42.3283 46.0449 42.1182 46.3122 42.1182V46.1182C48.183 46.1182 49.723 44.647 49.8085 42.7781L45.8127 42.5953ZM174.977 42.1182C175.253 42.1182 175.477 42.342 175.477 42.6182H171.477C171.477 44.5512 173.044 46.1182 174.977 46.1182V42.1182ZM91.1912 86.2125C91.7436 87.4974 93.008 88.3301 94.4066 88.3301V84.3301C94.6064 84.3301 94.787 84.449 94.866 84.6326L91.1912 86.2125ZM191.553 107.44C191.277 107.44 191.053 107.217 191.053 106.94H195.053C195.053 105.007 193.486 103.44 191.553 103.44V107.44ZM140.913 47.9216C140.866 47.9567 140.789 48.0009 140.683 48.0309C140.578 48.0608 140.471 48.0689 140.372 48.0595C140.181 48.0413 140.083 47.966 140.069 47.9536C140.052 47.9399 140.065 47.947 140.079 47.9774C140.09 48.0045 140.086 48.0133 140.088 47.9973L144.077 48.2931C144.178 46.9287 143.559 45.6538 142.626 44.878C141.634 44.0535 139.987 43.622 138.521 44.7154L140.913 47.9216ZM46.4142 40.8887C46.1291 40.8887 45.9017 40.6506 45.9147 40.3658L49.9105 40.5486C50.0017 38.5549 48.41 36.8887 46.4142 36.8887V40.8887ZM191.029 45.6182C191.029 43.6852 189.462 42.1182 187.529 42.1182V46.1182C187.253 46.1182 187.029 45.8943 187.029 45.6182H191.029ZM17 87.9404C17 89.8734 18.567 91.4404 20.5 91.4404V87.4404C20.7761 87.4404 21 87.6643 21 87.9404H17ZM193.476 91.4404C195.409 91.4404 196.976 89.8734 196.976 87.9404H192.976C192.976 87.6643 193.2 87.4404 193.476 87.4404V91.4404ZM208.528 42.6182C208.528 42.342 208.752 42.1182 209.028 42.1182V46.1182C210.961 46.1182 212.528 44.5512 212.528 42.6182H208.528ZM21 40.3887C21 40.6648 20.7761 40.8887 20.5 40.8887V36.8887C18.567 36.8887 17 38.4557 17 40.3887H21ZM190.529 87.4404C190.805 87.4404 191.029 87.6643 191.029 87.9404H187.029C187.029 89.8734 188.596 91.4404 190.529 91.4404V87.4404Z" fill="#E8EDFF" mask="url(#path-1-outside-1_27_91)"/>
<defs>
<linearGradient id="paint0_linear_27_91" x1="268.053" y1="-16.0596" x2="53.5527" y2="168.44" gradientUnits="userSpaceOnUse">
<stop offset="0.184533" stop-color="#6653DC"/>
<stop offset="0.513675" stop-color="#835898"/>
<stop offset="0.727758" stop-color="#5B327B"/>
</linearGradient>
</defs>
</svg>
