<svg width="334" height="188" viewBox="0 0 334 188" fill="none" xmlns="http://www.w3.org/2000/svg">
<rect width="334" height="188" fill="#1E1E1E"/>
<g clip-path="url(#clip0_0_1)">
<path d="M4.94727 99V48.4482H33.9316L33.6924 53.6777H10.8604V70.2207H32.5645V75.3818H10.8604V93.7705H34.4443L34.1709 99H4.94727ZM36.141 82.0127V76.9883H53.2309V82.0127H36.141ZM79.366 95.8896L63.8484 59.7959L62.5496 56.3438L62.7889 68.7168V99H57.2518V48.4482H64.908L82.5105 88.7119L99.9422 48.4482H107.393V99H101.651V68.5801L101.89 56.4805L100.626 59.9326L85.1424 95.8896H79.366ZM118.626 73.7412C118.626 80.2354 120.119 85.3395 123.104 89.0537C126.089 92.7451 130.498 94.5908 136.331 94.5908C142.165 94.5908 146.551 92.7451 149.49 89.0537C152.453 85.3623 153.934 80.2581 153.934 73.7412C153.934 67.0876 152.441 61.9264 149.456 58.2578C146.494 54.5892 142.13 52.7549 136.365 52.7549C130.6 52.7549 126.203 54.5892 123.172 58.2578C120.141 61.9264 118.626 67.0876 118.626 73.7412ZM160.257 73.7412C160.257 77.5921 159.722 81.1126 158.651 84.3027C157.602 87.4928 156.076 90.2386 154.071 92.54C152.088 94.8187 149.582 96.596 146.551 97.8721C143.52 99.1253 140.114 99.752 136.331 99.752C131.227 99.752 126.852 98.6696 123.206 96.5049C119.583 94.3174 116.86 91.2868 115.037 87.4131C113.237 83.5166 112.337 78.9479 112.337 73.707C112.337 65.6178 114.445 59.2376 118.66 54.5664C122.876 49.8952 128.778 47.5596 136.365 47.5596C143.839 47.5596 149.684 49.918 153.9 54.6348C158.138 59.3288 160.257 65.6976 160.257 73.7412ZM180.923 99H174.976V53.6777H159.424V48.4482H196.475V53.6777H180.923V99ZM204.017 99H198.104V48.4482H204.017V99ZM301.709 99H295.01L268.76 59.2148L267.051 56.8564C267.233 61.6416 267.324 65.9141 267.324 69.6738V99H261.787V48.4482H268.384L294.702 88.2334L296.445 90.5918C296.286 83.3229 296.206 79.1188 296.206 77.9795V48.4482H301.709V99Z" fill="white"/>
<path d="M218 81L213 90" stroke="white" stroke-width="5"/>
<path d="M213 69C219 88 243 88 250 69" stroke="white" stroke-width="5"/>
<path d="M232 84V97" stroke="white" stroke-width="5"/>
<path d="M244 79L252 90" stroke="white" stroke-width="5"/>
<ellipse cx="8.5" cy="9.5" rx="8.5" ry="9.5" transform="matrix(1 0 0 -1 128 68)" fill="white"/>
<path d="M152 112H108.028C107.199 112 106.731 112.95 107.242 113.603C120.326 130.327 132.039 139.924 152 145.989M152 112H181C181.552 112 182 112.448 182 113V150.86C182 151.464 181.469 151.93 180.87 151.85C169.477 150.314 160.065 148.44 152 145.989M152 112V145.989" stroke="white" stroke-width="6"/>
<path d="M229 152L269.972 152C270.801 152 271.27 151.049 270.763 150.393C257.853 133.671 248.959 124.076 229 118.011M229 152L200 152C199.448 152 199 151.552 199 151L199 113.14C199 112.536 199.531 112.07 200.13 112.15C211.523 113.686 220.935 115.56 229 118.011M229 152L229 118.011" stroke="white" stroke-width="6"/>
</g>
<defs>
<clipPath id="clip0_0_1">
<rect width="334" height="188" fill="white"/>
</clipPath>
</defs>
</svg>
