<svg width="359" height="193" viewBox="0 0 359 193" fill="none" xmlns="http://www.w3.org/2000/svg">
<rect width="359" height="193" fill="#1E1E1E"/>
<g clip-path="url(#clip0_0_1)">
<path d="M38.1104 85.9941C37.7913 85.9941 37.4382 85.9372 37.0508 85.8232C33.1999 84.7295 29.4857 84.1826 25.9082 84.1826C24.0397 84.1826 22.0003 84.3535 19.79 84.6953C17.5798 85.0371 15.1986 85.5612 12.6465 86.2676C12.8516 87.7487 12.9541 88.9336 12.9541 89.8223C12.9541 92.9896 12.7604 97.3418 12.373 102.879L27.3438 101.443C31.7415 100.988 34.4417 100.76 35.4443 100.76C36.4469 100.76 37.29 101.079 37.9736 101.717C38.6572 102.355 38.999 103.209 38.999 104.28C38.999 106.354 37.9508 107.516 35.8545 107.767L27.7197 108.484L11.9287 109.92C11.8376 111.538 11.7578 113.076 11.6895 114.534C11.6439 115.97 11.6211 117.314 11.6211 118.567C11.6211 123.603 11.9857 126.565 12.7148 127.454C13.2617 128.092 15.0505 128.411 18.0811 128.411C19.4938 128.411 21.613 128.377 24.4385 128.309C27.2868 128.217 29.4287 128.172 30.8643 128.172C31.32 128.172 31.9922 128.104 32.8809 127.967C33.7695 127.807 34.4303 127.728 34.8633 127.728C37.2786 127.728 38.4863 128.912 38.4863 131.282C38.4863 133.196 37.5179 134.347 35.5811 134.734C33.4391 135.167 28.8021 135.384 21.6699 135.384C14.6061 135.384 10.0716 134.45 8.06641 132.581C5.87891 130.553 4.78516 125.882 4.78516 118.567C4.78516 117.109 4.81934 115.514 4.8877 113.782C4.95605 112.05 5.0472 110.182 5.16113 108.177C4.91048 107.653 4.78516 107.094 4.78516 106.502C4.78516 105.727 5.00163 105.032 5.43457 104.417C5.8903 97.8317 6.11816 92.9668 6.11816 89.8223C6.11816 88.9792 6.00423 87.7487 5.77637 86.1309C5.5485 84.4902 5.43457 83.2484 5.43457 82.4053C5.43457 79.6937 6.57389 78.3379 8.85254 78.3379C9.80957 78.3379 10.6299 78.6683 11.3135 79.3291C14.0479 78.5999 16.6227 78.0531 19.0381 77.6885C21.4762 77.3239 23.7663 77.1416 25.9082 77.1416C31.4453 77.1416 35.8659 77.8024 39.1699 79.124C40.6966 79.7393 41.46 80.833 41.46 82.4053C41.46 83.3167 41.1637 84.1257 40.5713 84.832C39.9105 85.6068 39.0902 85.9941 38.1104 85.9941ZM62.058 115.765C58.959 116.084 53.4447 116.243 45.515 116.243C43.601 116.243 42.6439 115.354 42.6439 113.577C42.6439 111.8 43.601 110.911 45.515 110.911C47.3152 110.911 50.0154 110.831 53.6156 110.672C57.2159 110.512 59.9161 110.433 61.7162 110.433C63.7442 110.433 64.7582 111.321 64.7582 113.099C64.7582 114.671 63.8581 115.56 62.058 115.765ZM118.681 134.837C117.451 134.837 116.437 134.199 115.639 132.923C114.956 131.829 114.341 130.006 113.794 127.454L112.563 121.575C111.629 117.929 110.148 109.886 108.12 97.4443L101.284 118.055L99.2674 124.549C98.4471 127.124 97.5926 129.231 96.7039 130.872C95.7469 132.604 94.4594 133.47 92.8416 133.47C91.4972 133.47 90.4376 132.741 89.6629 131.282C89.1616 130.325 88.7059 129.106 88.2957 127.625L87.3045 123.831C85.0031 115.787 82.9751 107.174 81.2205 97.9912L79.99 104.109L75.5809 122.156C75.3986 124.275 74.8289 127.409 73.8719 131.556C73.1883 133.333 72.0604 134.222 70.4881 134.222C69.3716 134.222 68.4829 133.823 67.8221 133.025C67.2524 132.342 66.9676 131.499 66.9676 130.496C66.9676 126.691 67.7537 122.02 69.326 116.482L73.0857 102.708L75.0682 91.9414C76.0708 86.9056 77.1303 83.613 78.2469 82.0635C79.1583 80.7419 80.2863 80.0811 81.6307 80.0811C83.1118 80.0811 84.2169 80.9242 84.9461 82.6104C85.8348 84.6383 86.7918 88.7741 87.8172 95.0176C89.0249 102.514 90.9048 110.626 93.4568 119.354C96.8292 110.581 99.7459 101.443 102.207 91.9414L103.232 86.9512C103.642 84.946 104.178 83.3281 104.839 82.0977C105.727 80.4115 106.946 79.5684 108.496 79.5684C110.456 79.5684 111.948 81.4596 112.973 85.2422C113.338 86.541 113.782 89.2298 114.306 93.3086C115.651 103.608 117.326 112.404 119.331 119.695L121.006 125.574C121.872 128.719 122.304 130.656 122.304 131.385C122.304 132.365 121.929 133.185 121.177 133.846C120.447 134.507 119.616 134.837 118.681 134.837ZM147.448 134.085C141.023 134.085 135.577 132.16 131.111 128.309C126.371 124.207 124.001 118.921 124.001 112.449C124.001 104.565 126.337 97.3988 131.008 90.9502C136.226 83.7952 142.732 80.2178 150.525 80.2178C158.021 80.2178 163.593 81.904 167.238 85.2764C171.044 88.7855 172.946 94.3226 172.946 101.888C172.946 109.772 170.805 116.881 166.521 123.216C161.599 130.462 155.241 134.085 147.448 134.085ZM150.525 87.2246C144.942 87.2246 140.214 90.0046 136.34 95.5645C132.763 100.669 130.974 106.297 130.974 112.449C130.974 116.847 132.603 120.424 135.862 123.182C138.983 125.779 142.846 127.078 147.448 127.078C152.986 127.078 157.554 124.287 161.154 118.704C164.367 113.714 165.974 108.108 165.974 101.888C165.974 96.4417 164.755 92.6136 162.317 90.4033C159.992 88.2842 156.062 87.2246 150.525 87.2246ZM217.607 88.8311C215.921 88.8311 213.323 88.6943 209.814 88.4209C206.396 88.1702 203.798 88.0563 202.021 88.0791H199.594C199.663 91.2236 199.97 96.3278 200.517 103.392C201.018 109.977 201.269 115.092 201.269 118.738C201.269 119.536 201.349 120.743 201.508 122.361C201.668 123.979 201.748 125.198 201.748 126.019C201.748 127.568 201.497 128.901 200.996 130.018C200.358 131.521 199.366 132.273 198.022 132.273C197.111 132.273 196.29 131.954 195.561 131.316C194.832 130.678 194.467 129.858 194.467 128.855C194.467 128.514 194.524 128.001 194.638 127.317C194.752 126.634 194.809 126.121 194.809 125.779C194.809 124.663 194.729 122.988 194.57 120.755C194.433 118.522 194.365 116.836 194.365 115.696C194.365 112.438 194.103 107.858 193.579 101.956C193.032 95.5758 192.724 90.9958 192.656 88.2158L189.546 88.25C184.555 88.25 180.636 87.8854 177.788 87.1562C175.942 86.6777 175.019 85.5498 175.019 83.7725C175.019 82.8382 175.315 82.0179 175.908 81.3115C176.591 80.514 177.469 80.1494 178.54 80.2178C179.337 80.2633 181.16 80.4684 184.008 80.833C186.287 81.1064 188.133 81.2432 189.546 81.2432C190.913 81.2432 192.986 81.2204 195.766 81.1748C198.546 81.1064 200.62 81.0723 201.987 81.0723C203.741 81.0723 206.339 81.1976 209.78 81.4482C213.243 81.6989 215.852 81.8242 217.607 81.8242C218.587 81.8242 219.407 82.166 220.068 82.8496C220.729 83.5104 221.059 84.3421 221.059 85.3447C221.059 86.3245 220.729 87.1562 220.068 87.8398C219.407 88.5007 218.587 88.8311 217.607 88.8311ZM246.442 89.4121C244.984 89.4121 243.15 89.264 240.939 88.9678L235.437 88.25C234.912 94.8809 234.65 101.215 234.65 107.254C234.65 108.849 234.696 110.82 234.787 113.167C234.878 115.514 234.924 117.485 234.924 119.08C234.924 121.222 234.844 123.17 234.685 124.925L245.451 124.788C246.408 124.788 247.206 125.13 247.844 125.813C248.505 126.474 248.835 127.295 248.835 128.274C248.835 129.277 248.505 130.12 247.844 130.804C247.206 131.465 246.408 131.795 245.451 131.795C244.175 131.795 242.261 131.829 239.709 131.897C237.157 131.943 235.243 131.966 233.967 131.966C232.463 131.966 230.207 132.171 227.199 132.581C224.214 133.014 221.958 133.23 220.432 133.23C219.475 133.23 218.666 132.889 218.005 132.205C217.367 131.544 217.048 130.724 217.048 129.744C217.048 128.764 217.367 127.933 218.005 127.249C218.666 126.565 219.475 126.224 220.432 126.224C221.913 126.224 224.362 125.984 227.78 125.506C228.008 123.66 228.122 121.552 228.122 119.183C228.122 117.61 228.042 115.696 227.883 113.44C227.746 111.162 227.678 109.248 227.678 107.698C227.678 102.435 227.997 95.8607 228.635 87.9766L224.191 88.1133L219.748 88.2158C218.768 88.2158 217.948 87.8854 217.287 87.2246C216.626 86.5638 216.296 85.7207 216.296 84.6953C216.296 82.5762 217.367 81.4141 219.509 81.209C221.354 81.0267 224.807 80.9355 229.865 80.9355C234.4 80.9355 240.085 81.4255 246.921 82.4053C248.949 82.7015 249.963 83.9206 249.963 86.0625C249.963 87.1335 249.576 87.988 248.801 88.626C248.117 89.1501 247.331 89.4121 246.442 89.4121ZM289.838 133.025C287.742 133.025 285.919 130.337 284.37 124.959C283.777 122.908 283.037 119.319 282.148 114.192C279.824 114.511 276.782 115.081 273.022 115.901L263.93 117.781C262.791 120.766 260.843 125.13 258.085 130.872C257.356 132.148 256.365 132.786 255.112 132.786C254.2 132.786 253.38 132.456 252.651 131.795C251.944 131.134 251.591 130.314 251.591 129.334C251.591 128.24 253.312 124.082 256.752 116.858C256.365 116.266 256.171 115.582 256.171 114.808C256.171 112.962 257.288 111.777 259.521 111.253C262.119 106.377 265.4 100.771 269.365 94.4365C274.765 85.8005 278.126 81.4824 279.448 81.4824C281.248 81.4824 282.478 82.7357 283.139 85.2422L285.292 96.7266L290.385 120.481L292.333 125.882C292.994 127.728 293.325 128.958 293.325 129.573C293.325 130.553 292.971 131.373 292.265 132.034C291.559 132.695 290.75 133.025 289.838 133.025ZM277.773 93.958L267.997 109.715C270.755 109.008 274.936 108.154 280.541 107.151L277.773 93.958ZM346.086 124.412C346.086 125.506 345.903 127.329 345.539 129.881C345.174 132.182 343.955 133.333 341.882 133.333C340.628 133.333 339.136 132.513 337.404 130.872C328.13 122.099 317.489 109.441 305.48 92.8984L305.309 100.657L305.207 108.45C305.207 110.341 305.241 113.178 305.309 116.961C305.401 120.743 305.446 123.592 305.446 125.506C305.446 131.635 304.261 134.7 301.891 134.7C300.638 134.7 299.647 134.301 298.918 133.504C298.257 132.798 297.927 131.954 297.927 130.975C297.927 130.018 297.995 128.571 298.132 126.634C298.291 124.697 298.371 123.25 298.371 122.293C298.371 120.88 298.416 118.772 298.508 115.97C298.599 113.144 298.644 111.025 298.644 109.612C298.644 108.108 298.61 105.841 298.542 102.811C298.473 99.7572 298.439 97.4785 298.439 95.9746C298.439 94.5391 298.303 92.4085 298.029 89.583C297.756 86.7347 297.619 84.5928 297.619 83.1572C297.619 82.109 298.063 81.152 298.952 80.2861C299.863 79.4202 300.889 78.9873 302.028 78.9873C303.236 78.9873 304.728 80.3089 306.506 82.9521C312.18 91.4515 317.284 98.5153 321.818 104.144C327.219 110.82 333.143 117.2 339.592 123.284C339.66 122.304 339.66 120.857 339.592 118.943L339.489 114.637C339.489 104.633 339.102 96.6696 338.327 90.7451C338.236 90.1527 337.928 88.9564 337.404 87.1562C336.948 85.6068 336.721 84.3991 336.721 83.5332C336.721 80.89 337.928 79.5684 340.344 79.5684C344.308 79.5684 346.291 86.9626 346.291 101.751C346.291 104.28 346.257 108.063 346.188 113.099C346.12 118.112 346.086 121.883 346.086 124.412Z" fill="white"/>
<path d="M150.667 87.1101C150.667 91.6554 149.974 92.6267 148.568 96.4928C147.795 98.6183 148.982 99.8037 150.667 100.69C153.685 102.279 159.556 107.932 159.556 100.443" stroke="white" stroke-width="3" stroke-linecap="round"/>
<path d="M159.556 99.3324C159.556 109.185 151.2 106.637 145.975 102.666C142.96 100.374 142.488 94.055 142.889 90.4435C143.102 88.5227 148.895 89.3324 150.173 89.3324C155.736 89.3324 154.878 90.6222 156.222 95.999C156.703 97.9212 160.341 105.476 159.062 107.357C155.737 112.246 150.366 106.987 147.333 104.888C141.895 101.123 140.174 100.687 142.272 94.3941C143.95 89.3604 153.069 91.5546 157.889 91.5546C163.11 91.5546 162.889 97.6063 162.889 101.369C162.889 106.685 162.658 107.984 156.84 109.209C152.417 110.14 149.114 106.267 145.667 104.271C140.915 101.52 144.149 97.0934 146.161 93.4065C149.857 86.6294 164.327 105.594 155.111 98.2213" stroke="white" stroke-width="3" stroke-linecap="round"/>
<path d="M136.222 147.11C140.959 148.531 143.227 155.669 148.444 157.357C154.78 159.407 159.984 165.596 166.469 168.221C177.256 172.587 188.439 174.843 199.802 176.863C206.465 178.048 215.805 177.87 222.395 176.863C227.331 176.109 231.071 172.666 236.222 172.666C241.061 172.666 243.878 170.852 248.198 168.962C257.891 164.721 264.381 160.331 271.778 152.789C275.321 149.176 278.457 145.646 282.21 142.172C283.384 141.084 288.21 138.136 286.839 138.221C279.061 138.707 278.616 150.728 272.025 154.024C269.243 155.415 269.657 158.677 266.16 159.888C260.766 161.755 255.365 163.669 250.049 165.752C242.113 168.862 237.057 175.428 228.444 176.863C219.966 178.276 211.505 179.332 202.889 179.332C196.067 179.332 190.606 178.029 184 176.863C177.134 175.652 172.212 171.383 166.222 168.221C158.76 164.283 146.153 159.957 141.778 152.666" stroke="white" stroke-width="3" stroke-linecap="round"/>
<path d="M126.222 148.221C130.306 151.104 135.308 156.13 140.667 154.641C144.965 153.447 152.205 147.852 153.259 143.283C153.734 141.224 148.746 147.327 148.074 147.974C146.288 149.697 144.034 149.332 141.716 149.332C138.06 149.332 134.075 149.175 130.667 150.69C125.449 153.01 131.888 153.707 135.605 153.777C144.3 153.941 147.789 153.556 152.827 145.999C153.929 144.346 155.078 141.483 152.148 141.555C147.397 141.67 147.034 145.454 144.556 148.715C140.26 154.368 132.889 159.887 132.889 149.332" stroke="white" stroke-width="3" stroke-linecap="round"/>
<path d="M268.444 137.11C273.143 140.895 277.221 146.859 283.753 147.11C287.089 147.238 295.839 149.161 293.753 146.555C291.439 143.661 277.964 147.223 274 147.11C270.465 147.009 262.889 143.144 262.889 139.332C262.889 135.69 269.432 140.123 271.222 141.555C273.544 143.412 278.301 145.226 281.284 145.752C282.228 145.919 291.095 147.47 289.247 146.431C282.771 142.788 274.689 141.555 267.333 141.555" stroke="white" stroke-width="3" stroke-linecap="round"/>
<path d="M66.2223 28.2213H76.2223" stroke="white" stroke-width="3" stroke-linecap="round"/>
<path d="M65.1112 35.999C66.9154 37.6971 75.2578 42.5924 72.8889 43.7768" stroke="white" stroke-width="3" stroke-linecap="round"/>
<path d="M62.889 49.3324C65.76 53.5954 68.5244 57.8485 71.284 62.1719C73.2762 65.2929 70.2622 62.009 68.4445 61.5546" stroke="white" stroke-width="3" stroke-linecap="round"/>
<path d="M52.889 64.8879C54.2338 69.9309 55.6361 75.1642 55.0495 80.4435C54.6266 84.2494 53.4296 83.687 52.889 80.4435" stroke="white" stroke-width="3" stroke-linecap="round"/>
<path d="M35.1112 72.6656C37.0221 76.7264 36.4005 82.4085 36.2223 86.8632C36.138 88.972 33.3179 88.2212 31.7779 88.2212" stroke="white" stroke-width="3" stroke-linecap="round"/>
<path d="M16.2223 75.999C16.2223 80.1473 15.2396 81.9463 19.5557 82.6657" stroke="white" stroke-width="3" stroke-linecap="round"/>
<path d="M92.8889 53.7768C96.3986 50.2671 97.7774 48.972 102.642 49.3323C104.866 49.4971 107.173 52.0803 107.951 54.0237C108.784 56.1061 108.66 62.8798 107.951 60.7521C106.441 56.2217 110.799 47.8033 114.556 45.6286C117.391 43.9869 122.889 45.2527 122.889 48.2212" stroke="white" stroke-width="3" stroke-linecap="round"/>
<path d="M169.556 62.6657C161.734 51.9108 178.672 47.3714 182.025 55.7521C184.701 62.4434 187.812 52.77 190.42 52.6657C195.187 52.475 199.686 60.1828 201.778 55.999" stroke="white" stroke-width="3" stroke-linecap="round"/>
<path d="M226.222 38.2212C238.002 38.2212 249.914 39.3324 261.778 39.3324C271.034 39.3324 280.3 39.4627 289.556 39.3324C297.578 39.2194 304.681 35.999 312.889 35.999" stroke="white" stroke-width="3" stroke-linecap="round"/>
<path d="M256.222 35.999C262.896 28.9546 263.239 26.6871 271.531 33.2829C272.928 34.3946 279.185 37.8631 279.185 39.7027C279.185 41.255 271.184 31.3308 270.667 30.4434" stroke="white" stroke-width="3" stroke-linecap="round"/>
<path d="M268.444 64.8879C273.975 64.0584 280.936 54.453 286.716 56.4928C288.559 57.1434 293.531 60.0557 293.938 62.2953C294.299 64.2793 292.574 69.7706 294 68.3447C299.096 63.2489 297.434 51.779 307.086 51.5546C309.207 51.5052 311.92 51.1938 313.876 52.1719C318.374 54.4204 314.705 57.0108 312.889 58.2212" stroke="white" stroke-width="3" stroke-linecap="round"/>
<path d="M9.14325 63.9175C21.0896 67.3928 37.1642 69.1682 46.8593 59.4731C48.7173 57.615 52.1028 49.0964 52.4766 46.3867C52.8277 43.841 54.1202 41.5562 55.2543 39.2879C56.3264 37.1438 56.4578 32.195 55.2543 30.0287C54.0283 27.8218 53.5877 38.4139 53.5877 39.8435C53.5877 48.216 51.4299 52.6992 44.4519 57.8682C38.1515 62.5351 32.6524 64.2341 24.9457 65.0904C22.0536 65.4117 18.1964 65.7372 15.1926 66.3867C9.76079 67.5611 18.6151 69.3496 20.0074 69.3496C31.5312 69.3496 43.2363 65.6625 52.4766 58.7324C58.5323 54.1906 58.0321 44.6235 58.0321 37.7447C58.0321 35.619 58.925 32.8703 56.1803 32.8064C52.5222 32.7214 48.8524 32.8064 45.1926 32.8064C38.1556 32.8064 31.1185 32.8064 24.0815 32.8064C18.6284 32.8064 12.4766 30.8277 12.4766 37.7447C12.4766 43.4799 12.2037 49.2986 12.4766 55.0287C12.606 57.7469 13.5877 60.2781 13.5877 63.0533C13.5877 70.0698 17.2413 61.9608 17.9087 59.041C19.54 51.9037 24.2566 44.4327 22.4766 37.3126C21.6435 33.9803 21.3655 34.4465 21.3655 37.683C21.3655 43.2591 21.3655 48.8352 21.3655 54.4114C21.3655 55.9468 21.196 66.857 22.6 65.1521C26.6598 60.2224 28.0321 53.4333 28.0321 47.2509C28.0321 44.2056 28.0321 41.1603 28.0321 38.1151C28.0321 30.7335 28.0321 49.8627 28.0321 51.7571C28.0321 52.1656 27.8473 61.8188 28.279 61.8188C30.0907 61.8188 33.4432 49.8283 34.3284 48.2385C36.0512 45.1446 35.8099 57.1844 35.8099 58.9793C35.8099 64.4013 35.1041 58.3015 35.9334 55.399C37.0403 51.5245 40.6503 41.3582 45.8099 40.5842C50.2523 39.9179 50.4947 40.0999 45.3161 41.7571C40.4454 43.3157 35.4073 44.4085 30.3161 44.9052C25.3605 45.3887 30.9817 42.0803 32.4766 40.8311C35.3026 38.4697 51.11 28.3716 39.5136 34.4114C36.7758 35.8373 16.8718 42.0805 28.279 41.5101C32.579 41.2951 36.7909 39.8636 40.9951 39.041C48.1734 37.6366 42.4393 46.7303 42.7235 50.8311C43.192 57.5914 61.641 43.3177 52.7235 49.72C47.3838 53.5536 29.4878 61.8324 34.8222 57.9916C39.6974 54.4815 44.3955 51.1834 48.7111 46.9422C54.5758 41.1787 53.9874 41.4034 48.6494 46.6336C44.7752 50.4295 31.7785 61.9329 39.3284 49.3496C41.3125 46.0428 43.7279 42.563 46.6124 39.9669C49.3547 37.4988 43.7274 46.3455 43.4642 46.6336C41.017 49.3127 25.5938 66.7431 22.7235 58.2385C20.0884 50.431 26.7976 25.6156 26.7976 33.8558C26.7976 42.4774 16.8256 52.4424 8.89633 45.6459C5.50624 42.7401 3.44708 39.4722 4.32843 34.9052C4.58737 33.5635 8.52067 20.1191 11.242 22.9916C16.4673 28.5072 13.1818 43.1236 12.0445 49.72C11.0426 55.5308 19.267 44.8733 20.6247 43.5472C24.1344 40.1191 23.3048 54.0382 22.4148 56.2632C21.7342 57.9648 20.4481 53.1472 19.7605 51.4484C17.9647 47.0117 18.31 42.8695 18.0321 38.2385C17.8327 34.914 15.1427 40.0422 14.9457 40.4608C13.2878 43.9838 12.1858 48.5186 12.7235 52.4361C12.9317 53.9528 14.8082 50.1271 15.4395 48.7324C18.0368 42.9942 20.8882 37.4422 21.1803 31.0163C21.3986 26.213 20.1549 28.9698 19.6988 31.7571C18.6853 37.9506 17.7935 44.7456 19.1432 50.9546C20.3795 56.6415 19.933 57.3248 15.8716 61.2015C15.3579 61.6918 13.5972 64.6649 12.7852 64.1027C9.81042 62.0432 7.41605 57.9239 6.05683 54.72C3.87695 49.5817 3.58769 44.2253 3.58769 38.7324C3.58769 36.3321 2.35199 31.5185 3.46424 29.3497C7.51924 21.4424 24.0609 22.7737 30.8099 23.9176C33.7908 24.4228 44.8152 27.7165 43.5877 22.8064" stroke="white" stroke-width="3" stroke-linecap="round"/>
<path d="M225.81 38.362C232.088 37.5249 243.44 33.2266 249.76 36.3867C252.692 37.8527 251.417 43.8473 254.452 45.6459C256.898 47.0957 259.668 33.1676 260.254 31.2632C261.87 26.0128 276.074 25.5944 280.007 28.362C283.33 30.7003 282.93 40.8865 281.612 39.8435C278.836 37.6459 280.254 29.8637 280.254 26.8188C280.254 22.1128 290.499 23.9176 293.588 23.9176C298.612 23.9176 309.025 30.7773 304.946 36.3867C300.975 41.8464 283.623 42.7184 278.155 37.2509C276.797 35.8922 275.692 30.3971 278.094 29.5966C282.905 27.9928 286.314 35.5622 290.501 36.1398C298.583 37.2545 288.488 24.656 287.168 28.8558C285.2 35.1166 285.286 36.7408 278.526 39.2262C272.947 41.2774 266.707 41.1786 261.242 38.8558C258.444 37.6666 249.221 36.6231 249.452 36.6953C256.306 38.8373 268.311 38.3002 274.205 34.1645C279.67 30.3292 288.495 27.4903 295.069 30.6459C300.369 33.1899 304.996 32.8064 310.871 32.8064C313.464 32.8064 316.057 32.8064 318.649 32.8064C323.995 32.8064 311.089 33.5213 309.76 33.6706C304.408 34.272 299.442 35.9773 294.081 36.1398C291.325 36.2233 302.652 38.362 304.575 38.362C310.131 38.362 315.686 38.362 321.242 38.362C325.552 38.362 314.605 38.2772 313.588 38.362" stroke="white" stroke-width="3" stroke-linecap="round"/>
<path d="M172.476 23.9175C189.119 27.3313 203.524 23.9175 220.069 23.9175C223.379 23.9175 226.699 23.9894 230.007 23.9175C231.68 23.8811 242.328 22.8064 235.81 22.8064" stroke="white" stroke-width="3" stroke-linecap="round"/>
<path d="M178.032 23.9175C181.731 25.3971 187.972 25.761 191.736 24.3496C193.398 23.7262 192.309 18.7686 192.6 17.3126C193.41 13.2613 197.064 13.4876 199.76 15.0286C203.818 17.3471 206.802 25.6713 211.921 22.1274C216.339 19.069 226.54 10.1896 227.353 21.5719C227.541 24.1976 223.694 20.7491 223.155 20.0904C221.65 18.2498 221.517 19.4515 219.699 21.078C218.177 22.4393 211.966 24.3909 210.254 22.2509C208.55 20.1205 202.466 22.8064 200.254 22.8064C192.883 22.8064 203.354 17.1779 200.007 18.1151C197.852 18.7185 194.016 18.1612 192.476 20.2138C190.048 23.4517 187.248 24.895 182.97 25.0286C180.307 25.1119 190.834 20.0235 192.23 19.2262C195.327 17.4564 197.853 22.726 200.748 22.8064C207.194 22.9855 211.72 13.471 213.588 22.8064" stroke="white" stroke-width="3" stroke-linecap="round"/>
</g>
<defs>
<clipPath id="clip0_0_1">
<rect width="359" height="193" fill="white"/>
</clipPath>
</defs>
</svg>
