<svg width="328" height="147" viewBox="0 0 328 147" fill="none" xmlns="http://www.w3.org/2000/svg">
<mask id="path-1-outside-1_22_74" maskUnits="userSpaceOnUse" x="11" y="15" width="307" height="118" fill="black">
<rect fill="white" x="11" y="15" width="307" height="118"/>
<path fill-rule="evenodd" clip-rule="evenodd" d="M134.156 61.4941C131.171 57.7799 129.679 52.6758 129.679 46.1816C129.679 39.528 131.194 34.3669 134.225 30.6982C134.972 29.7934 135.803 29.0002 136.717 28.3185C137.81 27.5029 139.183 28.7848 139.082 30.1452C139.063 30.4074 139.053 30.6726 139.053 30.9404C139.053 36.1871 142.858 40.4404 147.553 40.4404C152.247 40.4404 156.053 36.1871 156.053 30.9404C156.053 30.7518 156.048 30.5644 156.038 30.3784C155.967 29.0075 157.383 27.7544 158.447 28.6215C159.197 29.2321 159.884 29.9244 160.509 30.6982C163.494 34.3669 164.987 39.528 164.987 46.1816C164.987 52.6986 163.505 57.8027 160.543 61.4941C157.604 65.1855 153.217 67.0312 147.384 67.0312C141.551 67.0312 137.141 65.1855 134.156 61.4941ZM169.703 56.7432C170.774 53.5531 171.31 50.0326 171.31 46.1816C171.31 38.138 169.191 31.7692 164.952 27.0752C160.737 22.3584 154.892 20 147.418 20C139.83 20 133.929 22.3356 129.713 27.0068C125.498 31.6781 123.39 38.0583 123.39 46.1475C123.39 51.3883 124.29 55.957 126.09 59.8535C127.913 63.7272 130.636 66.7578 134.259 68.9453C137.905 71.11 142.28 72.1924 147.384 72.1924C151.167 72.1924 154.573 71.5658 157.604 70.3125C160.634 69.0365 163.141 67.2591 165.123 64.9805C167.128 62.679 168.655 59.9333 169.703 56.7432ZM191.976 69.9404C191.976 70.7689 191.305 71.4404 190.476 71.4404H187.529C186.7 71.4404 186.029 70.7689 186.029 69.9404V27.6182C186.029 26.7897 185.357 26.1182 184.529 26.1182H171.977C171.149 26.1182 170.477 25.4466 170.477 24.6182V22.3887C170.477 21.5602 171.149 20.8887 171.977 20.8887H206.028C206.856 20.8887 207.528 21.5602 207.528 22.3887V24.6182C207.528 25.4466 206.856 26.1182 206.028 26.1182H193.476C192.648 26.1182 191.976 26.7897 191.976 27.6182V69.9404ZM209.156 69.9404C209.156 70.7689 209.828 71.4404 210.656 71.4404H213.569C214.398 71.4404 215.069 70.7689 215.069 69.9404V22.3887C215.069 21.5602 214.398 20.8887 213.569 20.8887H210.656C209.828 20.8887 209.156 21.5602 209.156 22.3887V69.9404ZM305.618 70.7665C305.895 71.1873 306.366 71.4404 306.87 71.4404H311.262C312.09 71.4404 312.762 70.7689 312.762 69.9404V22.3887C312.762 21.5602 312.09 20.8887 311.262 20.8887H308.759C307.93 20.8887 307.259 21.5602 307.259 22.3887V50.4199C307.259 51.3961 307.317 54.6221 307.434 60.098C307.454 61.0059 306.295 61.4041 305.755 60.6738V60.6738L279.881 21.5611C279.604 21.1412 279.134 20.8887 278.63 20.8887H274.34C273.511 20.8887 272.84 21.5602 272.84 22.3887V69.9404C272.84 70.7689 273.511 71.4404 274.34 71.4404H276.877C277.705 71.4404 278.377 70.7689 278.377 69.9404V42.1143C278.377 39.1342 278.32 35.8321 278.205 32.2079C278.178 31.3348 279.3 30.9479 279.812 31.6553V31.6553L305.618 70.7665ZM91.4066 68.3301C90.8072 68.3301 90.2653 67.9732 90.0286 67.4225L74.9012 32.2363V32.2363C74.6503 31.5694 73.6599 31.7595 73.6737 32.4719L73.8416 41.1572V69.9404C73.8416 70.7689 73.17 71.4404 72.3416 71.4404H69.8045C68.9761 71.4404 68.3045 70.7689 68.3045 69.9404V22.3887C68.3045 21.5602 68.9761 20.8887 69.8045 20.8887H74.9794C75.5755 20.8887 76.115 21.2416 76.3538 21.7878L92.1822 57.9932C92.7073 59.1944 94.4123 59.1914 94.9331 57.9883L110.604 21.7927C110.841 21.2439 111.382 20.8887 111.98 20.8887H116.946C117.775 20.8887 118.446 21.5602 118.446 22.3887V69.9404C118.446 70.7689 117.775 71.4404 116.946 71.4404H114.204C113.375 71.4404 112.704 70.7689 112.704 69.9404V41.0205L112.87 32.5967C112.884 31.9028 111.917 31.7214 111.679 32.373V32.373L96.5856 67.4233C96.3486 67.9736 95.807 68.3301 95.2079 68.3301H91.4066ZM48.6937 49.4287C47.8653 49.4287 47.1937 50.1003 47.1937 50.9287V52.9531C47.1937 53.7816 47.8653 54.4531 48.6937 54.4531H62.7836C63.612 54.4531 64.2836 53.7816 64.2836 52.9531V50.9287C64.2836 50.1003 63.612 49.4287 62.7836 49.4287H48.6937ZM17.5 71.4404C16.6716 71.4404 16 70.7689 16 69.9404V22.3887C16 21.5602 16.6716 20.8887 17.5 20.8887H43.4142C44.2695 20.8887 44.9517 21.6028 44.9126 22.4572L44.8106 24.6867C44.774 25.4877 44.1139 26.1182 43.3122 26.1182H23.4131C22.5847 26.1182 21.9131 26.7897 21.9131 27.6182V41.1611C21.9131 41.9896 22.5847 42.6611 23.4131 42.6611H42.1172C42.9456 42.6611 43.6172 43.3327 43.6172 44.1611V46.3223C43.6172 47.1507 42.9456 47.8223 42.1172 47.8223H23.4131C22.5847 47.8223 21.9131 48.4938 21.9131 49.3223V64.7109C21.9131 65.5394 22.5847 66.2109 23.4131 66.2109H43.9166C44.7758 66.2109 45.4594 66.9312 45.4145 67.7893L45.298 70.0188C45.2563 70.8157 44.598 71.4404 43.8 71.4404H17.5ZM223.099 32.7416C222.309 32.991 221.868 33.8377 222.159 34.613C225.768 44.2039 233.841 49.1904 242.178 49.1904C250.497 49.1904 258.763 44.2303 262.843 34.7003C263.17 33.9387 262.768 33.0725 261.991 32.7861L260.114 32.0947C259.337 31.8083 258.479 32.2101 258.145 32.9681C254.79 40.5755 248.346 44.1904 242.178 44.1904C236.04 44.1904 229.867 40.6176 226.935 33.1034C226.634 32.3316 225.796 31.8898 225.006 32.1393L223.099 32.7416ZM119.08 81.4404C115.776 81.4404 113.865 85.2504 115.932 87.8924C129.291 104.968 141.485 115.011 162.18 121.3C170.453 123.814 180.035 125.715 191.522 127.263C193.927 127.587 196.053 125.714 196.053 123.301V85.4404C196.053 83.2313 194.262 81.4404 192.053 81.4404H119.08ZM160.053 112.19C160.053 113.222 159.032 113.945 158.065 113.584C144.449 108.498 134.993 101.194 125.291 89.8707C124.468 88.909 125.16 87.4404 126.426 87.4404H158.553C159.381 87.4404 160.053 88.112 160.053 88.9404V112.19ZM167.145 116.487C166.498 116.31 166.053 115.72 166.053 115.048V88.9404C166.053 88.112 166.724 87.4404 167.553 87.4404H188.553C189.381 87.4404 190.053 88.112 190.053 88.9404V119.274C190.053 120.187 189.245 120.888 188.342 120.754C180.268 119.557 173.297 118.164 167.145 116.487ZM262.234 105.434C256.101 100.226 249.123 96.3431 239.18 93.3217C231.407 90.9595 222.281 89.1267 211.15 87.6138C210.329 87.5022 209.75 86.7491 209.857 85.9277L210.248 82.9532C210.356 82.1319 211.11 81.5532 211.931 81.6647C223.265 83.2042 232.737 85.0929 240.925 87.5809C251.572 90.8164 259.297 95.069 266.118 100.861C272.562 106.334 278.119 113.12 284.518 121.424C285.023 122.08 284.9 123.023 284.243 123.527L281.863 125.354C281.205 125.858 280.263 125.732 279.757 125.076C273.374 116.794 268.157 110.465 262.234 105.434ZM238.571 68.6501C238.433 66.9574 239.061 64.3803 241.005 60.8453C241.535 59.883 242.885 59.8778 243.403 60.8462C245.049 63.9201 245.653 66.5025 245.539 68.352C245.463 69.5968 245.076 70.4029 244.592 70.9091C244.165 71.3556 243.495 71.7451 242.436 71.8974C242.3 71.9171 242.16 71.9126 242.024 71.8866C240.795 71.651 240.002 71.2356 239.511 70.7851C239.012 70.3261 238.655 69.6764 238.571 68.6501ZM244.966 54.0154C243.543 52.0825 240.668 52.1598 239.325 54.1039C235.308 59.9179 233.255 64.9906 233.588 69.0575C233.762 71.196 234.603 73.0647 236.128 74.4664C237.613 75.8309 239.556 76.5805 241.671 76.8974C241.928 76.9358 242.195 76.9457 242.461 76.9238C244.727 76.7374 246.733 75.9049 248.206 74.3646C249.671 72.8321 250.398 70.8204 250.53 68.6576C250.789 64.4239 248.825 59.2584 244.966 54.0154Z"/>
</mask>
<path fill-rule="evenodd" clip-rule="evenodd" d="M134.156 61.4941C131.171 57.7799 129.679 52.6758 129.679 46.1816C129.679 39.528 131.194 34.3669 134.225 30.6982C134.972 29.7934 135.803 29.0002 136.717 28.3185C137.81 27.5029 139.183 28.7848 139.082 30.1452C139.063 30.4074 139.053 30.6726 139.053 30.9404C139.053 36.1871 142.858 40.4404 147.553 40.4404C152.247 40.4404 156.053 36.1871 156.053 30.9404C156.053 30.7518 156.048 30.5644 156.038 30.3784C155.967 29.0075 157.383 27.7544 158.447 28.6215C159.197 29.2321 159.884 29.9244 160.509 30.6982C163.494 34.3669 164.987 39.528 164.987 46.1816C164.987 52.6986 163.505 57.8027 160.543 61.4941C157.604 65.1855 153.217 67.0312 147.384 67.0312C141.551 67.0312 137.141 65.1855 134.156 61.4941ZM169.703 56.7432C170.774 53.5531 171.31 50.0326 171.31 46.1816C171.31 38.138 169.191 31.7692 164.952 27.0752C160.737 22.3584 154.892 20 147.418 20C139.83 20 133.929 22.3356 129.713 27.0068C125.498 31.6781 123.39 38.0583 123.39 46.1475C123.39 51.3883 124.29 55.957 126.09 59.8535C127.913 63.7272 130.636 66.7578 134.259 68.9453C137.905 71.11 142.28 72.1924 147.384 72.1924C151.167 72.1924 154.573 71.5658 157.604 70.3125C160.634 69.0365 163.141 67.2591 165.123 64.9805C167.128 62.679 168.655 59.9333 169.703 56.7432ZM191.976 69.9404C191.976 70.7689 191.305 71.4404 190.476 71.4404H187.529C186.7 71.4404 186.029 70.7689 186.029 69.9404V27.6182C186.029 26.7897 185.357 26.1182 184.529 26.1182H171.977C171.149 26.1182 170.477 25.4466 170.477 24.6182V22.3887C170.477 21.5602 171.149 20.8887 171.977 20.8887H206.028C206.856 20.8887 207.528 21.5602 207.528 22.3887V24.6182C207.528 25.4466 206.856 26.1182 206.028 26.1182H193.476C192.648 26.1182 191.976 26.7897 191.976 27.6182V69.9404ZM209.156 69.9404C209.156 70.7689 209.828 71.4404 210.656 71.4404H213.569C214.398 71.4404 215.069 70.7689 215.069 69.9404V22.3887C215.069 21.5602 214.398 20.8887 213.569 20.8887H210.656C209.828 20.8887 209.156 21.5602 209.156 22.3887V69.9404ZM305.618 70.7665C305.895 71.1873 306.366 71.4404 306.87 71.4404H311.262C312.09 71.4404 312.762 70.7689 312.762 69.9404V22.3887C312.762 21.5602 312.09 20.8887 311.262 20.8887H308.759C307.93 20.8887 307.259 21.5602 307.259 22.3887V50.4199C307.259 51.3961 307.317 54.6221 307.434 60.098C307.454 61.0059 306.295 61.4041 305.755 60.6738V60.6738L279.881 21.5611C279.604 21.1412 279.134 20.8887 278.63 20.8887H274.34C273.511 20.8887 272.84 21.5602 272.84 22.3887V69.9404C272.84 70.7689 273.511 71.4404 274.34 71.4404H276.877C277.705 71.4404 278.377 70.7689 278.377 69.9404V42.1143C278.377 39.1342 278.32 35.8321 278.205 32.2079C278.178 31.3348 279.3 30.9479 279.812 31.6553V31.6553L305.618 70.7665ZM91.4066 68.3301C90.8072 68.3301 90.2653 67.9732 90.0286 67.4225L74.9012 32.2363V32.2363C74.6503 31.5694 73.6599 31.7595 73.6737 32.4719L73.8416 41.1572V69.9404C73.8416 70.7689 73.17 71.4404 72.3416 71.4404H69.8045C68.9761 71.4404 68.3045 70.7689 68.3045 69.9404V22.3887C68.3045 21.5602 68.9761 20.8887 69.8045 20.8887H74.9794C75.5755 20.8887 76.115 21.2416 76.3538 21.7878L92.1822 57.9932C92.7073 59.1944 94.4123 59.1914 94.9331 57.9883L110.604 21.7927C110.841 21.2439 111.382 20.8887 111.98 20.8887H116.946C117.775 20.8887 118.446 21.5602 118.446 22.3887V69.9404C118.446 70.7689 117.775 71.4404 116.946 71.4404H114.204C113.375 71.4404 112.704 70.7689 112.704 69.9404V41.0205L112.87 32.5967C112.884 31.9028 111.917 31.7214 111.679 32.373V32.373L96.5856 67.4233C96.3486 67.9736 95.807 68.3301 95.2079 68.3301H91.4066ZM48.6937 49.4287C47.8653 49.4287 47.1937 50.1003 47.1937 50.9287V52.9531C47.1937 53.7816 47.8653 54.4531 48.6937 54.4531H62.7836C63.612 54.4531 64.2836 53.7816 64.2836 52.9531V50.9287C64.2836 50.1003 63.612 49.4287 62.7836 49.4287H48.6937ZM17.5 71.4404C16.6716 71.4404 16 70.7689 16 69.9404V22.3887C16 21.5602 16.6716 20.8887 17.5 20.8887H43.4142C44.2695 20.8887 44.9517 21.6028 44.9126 22.4572L44.8106 24.6867C44.774 25.4877 44.1139 26.1182 43.3122 26.1182H23.4131C22.5847 26.1182 21.9131 26.7897 21.9131 27.6182V41.1611C21.9131 41.9896 22.5847 42.6611 23.4131 42.6611H42.1172C42.9456 42.6611 43.6172 43.3327 43.6172 44.1611V46.3223C43.6172 47.1507 42.9456 47.8223 42.1172 47.8223H23.4131C22.5847 47.8223 21.9131 48.4938 21.9131 49.3223V64.7109C21.9131 65.5394 22.5847 66.2109 23.4131 66.2109H43.9166C44.7758 66.2109 45.4594 66.9312 45.4145 67.7893L45.298 70.0188C45.2563 70.8157 44.598 71.4404 43.8 71.4404H17.5ZM223.099 32.7416C222.309 32.991 221.868 33.8377 222.159 34.613C225.768 44.2039 233.841 49.1904 242.178 49.1904C250.497 49.1904 258.763 44.2303 262.843 34.7003C263.17 33.9387 262.768 33.0725 261.991 32.7861L260.114 32.0947C259.337 31.8083 258.479 32.2101 258.145 32.9681C254.79 40.5755 248.346 44.1904 242.178 44.1904C236.04 44.1904 229.867 40.6176 226.935 33.1034C226.634 32.3316 225.796 31.8898 225.006 32.1393L223.099 32.7416ZM119.08 81.4404C115.776 81.4404 113.865 85.2504 115.932 87.8924C129.291 104.968 141.485 115.011 162.18 121.3C170.453 123.814 180.035 125.715 191.522 127.263C193.927 127.587 196.053 125.714 196.053 123.301V85.4404C196.053 83.2313 194.262 81.4404 192.053 81.4404H119.08ZM160.053 112.19C160.053 113.222 159.032 113.945 158.065 113.584C144.449 108.498 134.993 101.194 125.291 89.8707C124.468 88.909 125.16 87.4404 126.426 87.4404H158.553C159.381 87.4404 160.053 88.112 160.053 88.9404V112.19ZM167.145 116.487C166.498 116.31 166.053 115.72 166.053 115.048V88.9404C166.053 88.112 166.724 87.4404 167.553 87.4404H188.553C189.381 87.4404 190.053 88.112 190.053 88.9404V119.274C190.053 120.187 189.245 120.888 188.342 120.754C180.268 119.557 173.297 118.164 167.145 116.487ZM262.234 105.434C256.101 100.226 249.123 96.3431 239.18 93.3217C231.407 90.9595 222.281 89.1267 211.15 87.6138C210.329 87.5022 209.75 86.7491 209.857 85.9277L210.248 82.9532C210.356 82.1319 211.11 81.5532 211.931 81.6647C223.265 83.2042 232.737 85.0929 240.925 87.5809C251.572 90.8164 259.297 95.069 266.118 100.861C272.562 106.334 278.119 113.12 284.518 121.424C285.023 122.08 284.9 123.023 284.243 123.527L281.863 125.354C281.205 125.858 280.263 125.732 279.757 125.076C273.374 116.794 268.157 110.465 262.234 105.434ZM238.571 68.6501C238.433 66.9574 239.061 64.3803 241.005 60.8453C241.535 59.883 242.885 59.8778 243.403 60.8462C245.049 63.9201 245.653 66.5025 245.539 68.352C245.463 69.5968 245.076 70.4029 244.592 70.9091C244.165 71.3556 243.495 71.7451 242.436 71.8974C242.3 71.9171 242.16 71.9126 242.024 71.8866C240.795 71.651 240.002 71.2356 239.511 70.7851C239.012 70.3261 238.655 69.6764 238.571 68.6501ZM244.966 54.0154C243.543 52.0825 240.668 52.1598 239.325 54.1039C235.308 59.9179 233.255 64.9906 233.588 69.0575C233.762 71.196 234.603 73.0647 236.128 74.4664C237.613 75.8309 239.556 76.5805 241.671 76.8974C241.928 76.9358 242.195 76.9457 242.461 76.9238C244.727 76.7374 246.733 75.9049 248.206 74.3646C249.671 72.8321 250.398 70.8204 250.53 68.6576C250.789 64.4239 248.825 59.2584 244.966 54.0154Z" fill="#E5E3E3"/>
<path fill-rule="evenodd" clip-rule="evenodd" d="M134.156 61.4941C131.171 57.7799 129.679 52.6758 129.679 46.1816C129.679 39.528 131.194 34.3669 134.225 30.6982C134.972 29.7934 135.803 29.0002 136.717 28.3185C137.81 27.5029 139.183 28.7848 139.082 30.1452C139.063 30.4074 139.053 30.6726 139.053 30.9404C139.053 36.1871 142.858 40.4404 147.553 40.4404C152.247 40.4404 156.053 36.1871 156.053 30.9404C156.053 30.7518 156.048 30.5644 156.038 30.3784C155.967 29.0075 157.383 27.7544 158.447 28.6215C159.197 29.2321 159.884 29.9244 160.509 30.6982C163.494 34.3669 164.987 39.528 164.987 46.1816C164.987 52.6986 163.505 57.8027 160.543 61.4941C157.604 65.1855 153.217 67.0312 147.384 67.0312C141.551 67.0312 137.141 65.1855 134.156 61.4941ZM169.703 56.7432C170.774 53.5531 171.31 50.0326 171.31 46.1816C171.31 38.138 169.191 31.7692 164.952 27.0752C160.737 22.3584 154.892 20 147.418 20C139.83 20 133.929 22.3356 129.713 27.0068C125.498 31.6781 123.39 38.0583 123.39 46.1475C123.39 51.3883 124.29 55.957 126.09 59.8535C127.913 63.7272 130.636 66.7578 134.259 68.9453C137.905 71.11 142.28 72.1924 147.384 72.1924C151.167 72.1924 154.573 71.5658 157.604 70.3125C160.634 69.0365 163.141 67.2591 165.123 64.9805C167.128 62.679 168.655 59.9333 169.703 56.7432ZM191.976 69.9404C191.976 70.7689 191.305 71.4404 190.476 71.4404H187.529C186.7 71.4404 186.029 70.7689 186.029 69.9404V27.6182C186.029 26.7897 185.357 26.1182 184.529 26.1182H171.977C171.149 26.1182 170.477 25.4466 170.477 24.6182V22.3887C170.477 21.5602 171.149 20.8887 171.977 20.8887H206.028C206.856 20.8887 207.528 21.5602 207.528 22.3887V24.6182C207.528 25.4466 206.856 26.1182 206.028 26.1182H193.476C192.648 26.1182 191.976 26.7897 191.976 27.6182V69.9404ZM209.156 69.9404C209.156 70.7689 209.828 71.4404 210.656 71.4404H213.569C214.398 71.4404 215.069 70.7689 215.069 69.9404V22.3887C215.069 21.5602 214.398 20.8887 213.569 20.8887H210.656C209.828 20.8887 209.156 21.5602 209.156 22.3887V69.9404ZM305.618 70.7665C305.895 71.1873 306.366 71.4404 306.87 71.4404H311.262C312.09 71.4404 312.762 70.7689 312.762 69.9404V22.3887C312.762 21.5602 312.09 20.8887 311.262 20.8887H308.759C307.93 20.8887 307.259 21.5602 307.259 22.3887V50.4199C307.259 51.3961 307.317 54.6221 307.434 60.098C307.454 61.0059 306.295 61.4041 305.755 60.6738V60.6738L279.881 21.5611C279.604 21.1412 279.134 20.8887 278.63 20.8887H274.34C273.511 20.8887 272.84 21.5602 272.84 22.3887V69.9404C272.84 70.7689 273.511 71.4404 274.34 71.4404H276.877C277.705 71.4404 278.377 70.7689 278.377 69.9404V42.1143C278.377 39.1342 278.32 35.8321 278.205 32.2079C278.178 31.3348 279.3 30.9479 279.812 31.6553V31.6553L305.618 70.7665ZM91.4066 68.3301C90.8072 68.3301 90.2653 67.9732 90.0286 67.4225L74.9012 32.2363V32.2363C74.6503 31.5694 73.6599 31.7595 73.6737 32.4719L73.8416 41.1572V69.9404C73.8416 70.7689 73.17 71.4404 72.3416 71.4404H69.8045C68.9761 71.4404 68.3045 70.7689 68.3045 69.9404V22.3887C68.3045 21.5602 68.9761 20.8887 69.8045 20.8887H74.9794C75.5755 20.8887 76.115 21.2416 76.3538 21.7878L92.1822 57.9932C92.7073 59.1944 94.4123 59.1914 94.9331 57.9883L110.604 21.7927C110.841 21.2439 111.382 20.8887 111.98 20.8887H116.946C117.775 20.8887 118.446 21.5602 118.446 22.3887V69.9404C118.446 70.7689 117.775 71.4404 116.946 71.4404H114.204C113.375 71.4404 112.704 70.7689 112.704 69.9404V41.0205L112.87 32.5967C112.884 31.9028 111.917 31.7214 111.679 32.373V32.373L96.5856 67.4233C96.3486 67.9736 95.807 68.3301 95.2079 68.3301H91.4066ZM48.6937 49.4287C47.8653 49.4287 47.1937 50.1003 47.1937 50.9287V52.9531C47.1937 53.7816 47.8653 54.4531 48.6937 54.4531H62.7836C63.612 54.4531 64.2836 53.7816 64.2836 52.9531V50.9287C64.2836 50.1003 63.612 49.4287 62.7836 49.4287H48.6937ZM17.5 71.4404C16.6716 71.4404 16 70.7689 16 69.9404V22.3887C16 21.5602 16.6716 20.8887 17.5 20.8887H43.4142C44.2695 20.8887 44.9517 21.6028 44.9126 22.4572L44.8106 24.6867C44.774 25.4877 44.1139 26.1182 43.3122 26.1182H23.4131C22.5847 26.1182 21.9131 26.7897 21.9131 27.6182V41.1611C21.9131 41.9896 22.5847 42.6611 23.4131 42.6611H42.1172C42.9456 42.6611 43.6172 43.3327 43.6172 44.1611V46.3223C43.6172 47.1507 42.9456 47.8223 42.1172 47.8223H23.4131C22.5847 47.8223 21.9131 48.4938 21.9131 49.3223V64.7109C21.9131 65.5394 22.5847 66.2109 23.4131 66.2109H43.9166C44.7758 66.2109 45.4594 66.9312 45.4145 67.7893L45.298 70.0188C45.2563 70.8157 44.598 71.4404 43.8 71.4404H17.5ZM223.099 32.7416C222.309 32.991 221.868 33.8377 222.159 34.613C225.768 44.2039 233.841 49.1904 242.178 49.1904C250.497 49.1904 258.763 44.2303 262.843 34.7003C263.17 33.9387 262.768 33.0725 261.991 32.7861L260.114 32.0947C259.337 31.8083 258.479 32.2101 258.145 32.9681C254.79 40.5755 248.346 44.1904 242.178 44.1904C236.04 44.1904 229.867 40.6176 226.935 33.1034C226.634 32.3316 225.796 31.8898 225.006 32.1393L223.099 32.7416ZM119.08 81.4404C115.776 81.4404 113.865 85.2504 115.932 87.8924C129.291 104.968 141.485 115.011 162.18 121.3C170.453 123.814 180.035 125.715 191.522 127.263C193.927 127.587 196.053 125.714 196.053 123.301V85.4404C196.053 83.2313 194.262 81.4404 192.053 81.4404H119.08ZM160.053 112.19C160.053 113.222 159.032 113.945 158.065 113.584C144.449 108.498 134.993 101.194 125.291 89.8707C124.468 88.909 125.16 87.4404 126.426 87.4404H158.553C159.381 87.4404 160.053 88.112 160.053 88.9404V112.19ZM167.145 116.487C166.498 116.31 166.053 115.72 166.053 115.048V88.9404C166.053 88.112 166.724 87.4404 167.553 87.4404H188.553C189.381 87.4404 190.053 88.112 190.053 88.9404V119.274C190.053 120.187 189.245 120.888 188.342 120.754C180.268 119.557 173.297 118.164 167.145 116.487ZM262.234 105.434C256.101 100.226 249.123 96.3431 239.18 93.3217C231.407 90.9595 222.281 89.1267 211.15 87.6138C210.329 87.5022 209.75 86.7491 209.857 85.9277L210.248 82.9532C210.356 82.1319 211.11 81.5532 211.931 81.6647C223.265 83.2042 232.737 85.0929 240.925 87.5809C251.572 90.8164 259.297 95.069 266.118 100.861C272.562 106.334 278.119 113.12 284.518 121.424C285.023 122.08 284.9 123.023 284.243 123.527L281.863 125.354C281.205 125.858 280.263 125.732 279.757 125.076C273.374 116.794 268.157 110.465 262.234 105.434ZM238.571 68.6501C238.433 66.9574 239.061 64.3803 241.005 60.8453C241.535 59.883 242.885 59.8778 243.403 60.8462C245.049 63.9201 245.653 66.5025 245.539 68.352C245.463 69.5968 245.076 70.4029 244.592 70.9091C244.165 71.3556 243.495 71.7451 242.436 71.8974C242.3 71.9171 242.16 71.9126 242.024 71.8866C240.795 71.651 240.002 71.2356 239.511 70.7851C239.012 70.3261 238.655 69.6764 238.571 68.6501ZM244.966 54.0154C243.543 52.0825 240.668 52.1598 239.325 54.1039C235.308 59.9179 233.255 64.9906 233.588 69.0575C233.762 71.196 234.603 73.0647 236.128 74.4664C237.613 75.8309 239.556 76.5805 241.671 76.8974C241.928 76.9358 242.195 76.9457 242.461 76.9238C244.727 76.7374 246.733 75.9049 248.206 74.3646C249.671 72.8321 250.398 70.8204 250.53 68.6576C250.789 64.4239 248.825 59.2584 244.966 54.0154Z" stroke="black" stroke-width="10" stroke-linejoin="round" mask="url(#path-1-outside-1_22_74)"/>
<path fill-rule="evenodd" clip-rule="evenodd" d="M134.259 68.9453C130.636 66.7578 127.913 63.7272 126.09 59.8535C124.29 55.957 123.39 51.3883 123.39 46.1475C123.39 38.0583 125.498 31.6781 129.713 27.0068C133.929 22.3356 139.83 20 147.418 20C154.892 20 160.737 22.3584 164.952 27.0752C169.191 31.7692 171.31 38.138 171.31 46.1816C171.31 50.0326 170.774 53.5531 169.703 56.7432C168.655 59.9333 167.128 62.679 165.123 64.9805C163.141 67.2591 160.634 69.0365 157.604 70.3125C154.573 71.5658 151.167 72.1924 147.384 72.1924C142.28 72.1924 137.905 71.11 134.259 68.9453ZM135.103 29.7254C134.798 30.0339 134.506 30.3582 134.225 30.6982C131.194 34.3669 129.679 39.528 129.679 46.1816C129.679 52.6758 131.171 57.7799 134.156 61.4941C137.141 65.1855 141.551 67.0312 147.384 67.0312C153.217 67.0312 157.604 65.1855 160.543 61.4941C163.505 57.8027 164.987 52.6986 164.987 46.1816C164.987 39.528 163.494 34.3669 160.509 30.6982C160.353 30.5056 160.194 30.3181 160.031 30.1356C159.538 29.5848 159.01 29.0801 158.447 28.6214C157.383 27.7544 155.967 29.0075 156.038 30.3784C156.048 30.5644 156.053 30.7518 156.053 30.9404C156.053 31.2312 156.041 31.5189 156.018 31.8029C155.628 36.6455 151.987 40.4404 147.553 40.4404C143.043 40.4404 139.353 36.5144 139.07 31.5534C139.059 31.3507 139.053 31.1464 139.053 30.9404C139.053 30.6726 139.063 30.4074 139.082 30.1452C139.183 28.7848 137.81 27.5029 136.717 28.3185C136.146 28.744 135.608 29.213 135.103 29.7254ZM137.337 38.7123C136.618 37.6009 134.892 37.553 134.545 38.8308C133.986 40.8853 133.679 43.317 133.679 46.1816C133.679 52.0896 135.035 56.1994 137.27 58.9835C139.323 61.5197 142.457 63.0312 147.384 63.0312C152.316 63.0312 155.411 61.5177 157.414 59.0024L157.423 58.9907C159.635 56.2353 160.987 52.1279 160.987 46.1816C160.987 43.5757 160.736 41.3271 160.278 39.3945C159.97 38.1001 158.227 38.0807 157.46 39.1676C155.242 42.3102 151.746 44.4404 147.553 44.4404C143.16 44.4404 139.533 42.1027 137.337 38.7123ZM168.141 67.6059C165.723 70.3854 162.699 72.5073 159.156 73.999L159.132 74.0089C155.548 75.4909 151.611 76.1924 147.384 76.1924C141.708 76.1924 136.596 74.9847 132.217 72.3847L132.192 72.3696C127.884 69.7691 124.626 66.1358 122.471 61.5567L122.459 61.5311V61.5311C122.456 61.5246 122.446 61.5267 122.446 61.5339V71.4404C122.446 73.6496 120.655 75.4404 118.446 75.4404H112.704C110.495 75.4404 108.704 73.6496 108.704 71.4404V56.6709C108.704 55.0411 106.471 54.5808 105.826 56.0776L99.869 69.9121C99.2371 71.3794 97.7927 72.3301 96.1951 72.3301H90.4187C88.8203 72.3301 87.3753 71.3784 86.744 69.91L80.7196 55.8974C80.0757 54.3997 77.8416 54.8596 77.8416 56.4899V71.4404C77.8416 73.6496 76.0507 75.4404 73.8416 75.4404H68.3045C66.0954 75.4404 64.3045 73.6496 64.3045 71.4404V58.474C64.3045 58.4624 64.2951 58.4531 64.2836 58.4531V58.4531H47.1937C44.9846 58.4531 43.1937 56.6623 43.1937 54.4531V53.3223C43.1937 52.4938 42.5222 51.8223 41.6937 51.8223H27.4131C26.5847 51.8223 25.9131 52.4938 25.9131 53.3223V60.7109C25.9131 61.5394 26.5847 62.2109 27.4131 62.2109H45.4971C46.5942 62.2109 47.6431 62.6616 48.3984 63.4573C49.1537 64.2531 49.5489 65.3242 49.4916 66.4198L49.2182 71.6493C49.1071 73.7744 47.3516 75.4404 45.2236 75.4404H16C13.7909 75.4404 12 73.6496 12 71.4404V20.8887C12 18.6795 13.7909 16.8887 16 16.8887H44.9844C46.077 16.8887 47.122 17.3356 47.8767 18.1256C48.6314 18.9157 49.0301 19.98 48.9802 21.0715L48.7409 26.301C48.6432 28.4368 46.8832 30.1182 44.7451 30.1182H27.4131C26.5847 30.1182 25.9131 30.7897 25.9131 31.6182V37.1611C25.9131 37.9896 26.5847 38.6611 27.4131 38.6611H43.6172C45.8263 38.6611 47.6172 40.452 47.6172 42.6611V43.9287C47.6172 44.7571 48.2888 45.4287 49.1172 45.4287H64.2836V45.4287C64.2951 45.4287 64.3045 45.4194 64.3045 45.4079V20.8887C64.3045 18.6795 66.0954 16.8887 68.3045 16.8887H75.9607C77.5503 16.8887 78.989 17.8299 79.6258 19.2864L92.1643 47.9666C92.6894 49.1678 94.3944 49.1648 94.9152 47.9617L107.324 19.2995C107.958 17.836 109.4 16.8887 110.995 16.8887H118.446C120.655 16.8887 122.446 18.6795 122.446 20.8887V24.0797C122.446 25.6838 125.016 26.3732 126.041 25.1388C126.269 24.8641 126.503 24.5935 126.744 24.327C131.872 18.644 138.952 16 147.418 16C154.277 16 160.219 17.7981 164.954 21.5826C165.55 22.0591 166.477 21.6518 166.477 20.8887V20.8887C166.477 18.6795 168.268 16.8887 170.477 16.8887H207.528C207.7 16.8887 207.87 16.8996 208.036 16.9207C208.239 16.9464 208.445 16.9464 208.648 16.9207C208.814 16.8996 208.984 16.8887 209.156 16.8887H215.069C217.278 16.8887 219.069 18.6795 219.069 20.8887V28.5462C219.069 29.1776 219.862 29.569 220.464 29.3789V29.3789L225.232 27.8733C226.244 27.5538 227.341 27.6493 228.282 28.1387C229.223 28.6282 229.932 29.4715 230.251 30.4831C232.415 37.3351 237.447 40.1904 242.178 40.1904C246.967 40.1904 252.355 37.2454 254.953 30.1933C255.717 28.1204 258.017 27.0591 260.09 27.8228L264.781 29.5513C265.777 29.9181 266.586 30.6652 267.03 31.6285C267.475 32.5917 267.519 33.6921 267.152 34.6875C263.979 43.3004 257.838 49.1124 250.736 51.6848C249.754 52.0404 249.324 53.2372 249.884 54.1184C252.997 59.0148 254.813 64.1534 254.523 68.902C254.345 71.7967 253.349 74.7738 251.097 77.129L248.206 74.3646C249.671 72.8321 250.398 70.8204 250.53 68.6576C250.789 64.4239 248.825 59.2584 244.966 54.0154C244.693 53.6444 244.366 53.3474 244.007 53.1235C243.449 52.7756 242.813 52.6041 242.178 52.6051C241.542 52.6061 240.907 52.7802 240.352 53.1235C239.96 53.3661 239.608 53.6934 239.325 54.1039C235.308 59.9179 233.255 64.9906 233.588 69.0575C233.762 71.196 234.603 73.0647 236.128 74.4664C237.613 75.8309 239.556 76.5805 241.671 76.8974C241.928 76.9358 242.195 76.9457 242.461 76.9238C244.727 76.7374 246.733 75.9049 248.206 74.3646L251.097 77.129C248.825 79.5044 245.838 80.6595 242.789 80.9104C242.211 80.9579 241.634 80.9365 241.078 80.8532C238.436 80.4573 235.662 79.4714 233.421 77.4114C231.074 75.2544 229.848 72.4098 229.601 69.3835C229.207 64.5647 231.259 59.3279 234.547 54.0849C235.093 53.2132 234.661 52.0441 233.695 51.6899C229.504 50.1536 225.698 47.4571 222.713 43.6904C221.706 42.4194 219.069 43.0969 219.069 44.7184V71.4404C219.069 73.6496 217.278 75.4404 215.069 75.4404H209.156C206.947 75.4404 205.156 73.6496 205.156 71.4404V31.6182C205.156 30.7897 204.485 30.1182 203.656 30.1182H197.476C196.648 30.1182 195.976 30.7897 195.976 31.6182V71.4404C195.976 73.6496 194.185 75.4404 191.976 75.4404H186.029C183.82 75.4404 182.029 73.6496 182.029 71.4404V31.6182C182.029 30.7897 181.357 30.1182 180.529 30.1182H174.301C173.181 30.1182 172.448 31.3066 172.867 32.345C174.524 36.4427 175.31 41.0858 175.31 46.1816C175.31 50.3991 174.724 54.3522 173.5 58.0036C172.302 61.6443 170.527 64.8666 168.141 67.6059ZM206.028 26.1182C206.856 26.1182 207.528 25.4466 207.528 24.6182V22.3887C207.528 21.5602 206.856 20.8887 206.028 20.8887H171.977C171.149 20.8887 170.477 21.5602 170.477 22.3887V24.6182C170.477 25.4466 171.149 26.1182 171.977 26.1182H184.529C185.357 26.1182 186.029 26.7897 186.029 27.6182V69.9404C186.029 70.7689 186.7 71.4404 187.529 71.4404H190.476C191.305 71.4404 191.976 70.7689 191.976 69.9404V27.6182C191.976 26.7897 192.648 26.1182 193.476 26.1182H206.028ZM209.156 69.9404C209.156 70.7689 209.828 71.4404 210.656 71.4404H213.569C214.398 71.4404 215.069 70.7689 215.069 69.9404V22.3887C215.069 21.5602 214.398 20.8887 213.569 20.8887H210.656C209.828 20.8887 209.156 21.5602 209.156 22.3887V69.9404ZM239.669 49.0389C240.5 49.1398 241.337 49.1904 242.178 49.1904C243.022 49.1904 243.866 49.1393 244.705 49.0375C251.452 48.2189 257.883 44.1227 261.753 36.9612C262.143 36.2381 262.508 35.4837 262.844 34.6984C263.17 33.9368 262.768 33.0725 261.991 32.7861L260.114 32.0947C259.337 31.8083 258.479 32.2101 258.145 32.9681C254.79 40.5755 248.346 44.1904 242.178 44.1904C236.04 44.1904 229.867 40.6176 226.935 33.1034C226.634 32.3316 225.796 31.8898 225.006 32.1393L223.099 32.7416C222.309 32.991 221.867 33.8355 222.159 34.6109C222.46 35.4125 222.793 36.1819 223.154 36.9189C226.682 44.113 232.947 48.2221 239.669 49.0389ZM94.9331 57.9883C94.4123 59.1914 92.7073 59.1944 92.1822 57.9932L76.3538 21.7878C76.115 21.2416 75.5755 20.8887 74.9794 20.8887H69.8045C68.9761 20.8887 68.3045 21.5602 68.3045 22.3887V69.9404C68.3045 70.7689 68.9761 71.4404 69.8045 71.4404H72.3416C73.17 71.4404 73.8416 70.7689 73.8416 69.9404V41.1572L73.6737 32.4719C73.6599 31.7595 74.6503 31.5694 74.9012 32.2363V32.2363L90.0286 67.4225C90.2653 67.9732 90.8072 68.3301 91.4066 68.3301H95.2079C95.807 68.3301 96.3486 67.9736 96.5856 67.4233L111.679 32.373V32.373C111.917 31.7214 112.884 31.9028 112.87 32.5967L112.704 41.0205V69.9404C112.704 70.7689 113.375 71.4404 114.204 71.4404H116.946C117.775 71.4404 118.446 70.7689 118.446 69.9404V22.3887C118.446 21.5602 117.775 20.8887 116.946 20.8887H111.98C111.382 20.8887 110.841 21.2439 110.604 21.7927L94.9331 57.9883ZM48.6937 49.4287C47.8653 49.4287 47.1937 50.1003 47.1937 50.9287V52.9531C47.1937 53.7816 47.8653 54.4531 48.6937 54.4531H62.7836C63.612 54.4531 64.2836 53.7816 64.2836 52.9531V50.9287C64.2836 50.1003 63.612 49.4287 62.7836 49.4287H48.6937ZM43.6172 44.1611C43.6172 43.3327 42.9456 42.6611 42.1172 42.6611H23.4131C22.5847 42.6611 21.9131 41.9896 21.9131 41.1611V27.6182C21.9131 26.7897 22.5847 26.1182 23.4131 26.1182H43.3122C44.1139 26.1182 44.774 25.4877 44.8106 24.6867L44.9126 22.4572C44.9517 21.6028 44.2695 20.8887 43.4142 20.8887H17.5C16.6716 20.8887 16 21.5602 16 22.3887V69.9404C16 70.7689 16.6716 71.4404 17.5 71.4404H43.8C44.598 71.4404 45.2563 70.8157 45.298 70.0188L45.4145 67.7893C45.4594 66.9312 44.7758 66.2109 43.9166 66.2109H23.4131C22.5847 66.2109 21.9131 65.5394 21.9131 64.7109V49.3223C21.9131 48.4938 22.5847 47.8223 23.4131 47.8223H42.1172C42.9456 47.8223 43.6172 47.1507 43.6172 46.3223V44.1611ZM316.762 71.4404C316.762 73.6496 314.971 75.4404 312.762 75.4404H306.062C304.718 75.4404 303.464 74.7653 302.724 73.6433L285.129 46.9762C284.31 45.7344 282.377 46.3145 282.377 47.8023V71.4404C282.377 73.6496 280.586 75.4404 278.377 75.4404H272.84C270.631 75.4404 268.84 73.6496 268.84 71.4404V20.8887C268.84 18.6795 270.631 16.8887 272.84 16.8887H279.437C280.779 16.8887 282.032 17.5621 282.773 18.6818L300.508 45.4917C301.328 46.7318 303.259 46.151 303.259 44.6642V20.8887C303.259 18.6795 305.05 16.8887 307.259 16.8887H312.762C314.971 16.8887 316.762 18.6795 316.762 20.8887V71.4404ZM307.346 55.8289C307.367 56.8869 307.392 58.0915 307.42 59.4427C307.421 59.4851 307.422 59.5276 307.423 59.5702C307.427 59.7445 307.431 59.9211 307.434 60.1002C307.454 61.0081 306.295 61.4041 305.755 60.6738V60.6738L279.881 21.5611C279.604 21.1412 279.134 20.8887 278.63 20.8887H274.34C273.511 20.8887 272.84 21.5602 272.84 22.3887V69.9404C272.84 70.7689 273.511 71.4404 274.34 71.4404H276.877C277.705 71.4404 278.377 70.7689 278.377 69.9404V42.1143C278.377 40.4015 278.358 38.5823 278.32 36.6567C278.296 35.4174 278.264 34.134 278.224 32.8066C278.223 32.773 278.222 32.7393 278.221 32.7056C278.216 32.5403 278.21 32.3743 278.205 32.2076C278.178 31.3344 279.3 30.9479 279.812 31.6553V31.6553L305.618 70.7665C305.895 71.1873 306.366 71.4404 306.87 71.4404H311.262C312.09 71.4404 312.762 70.7689 312.762 69.9404V22.3887C312.762 21.5602 312.09 20.8887 311.262 20.8887H308.759C307.93 20.8887 307.259 21.5602 307.259 22.3887V50.4199C307.259 51.1073 307.288 52.9103 307.346 55.8289ZM126.658 91.4404C135.406 101.328 144.123 108.007 156.053 112.804C156.714 113.07 157.386 113.33 158.068 113.585C159.035 113.946 160.053 113.222 160.053 112.19V88.9404C160.053 88.112 159.381 87.4404 158.553 87.4404H126.426C125.16 87.4404 124.468 88.909 125.291 89.8707C125.747 90.4028 126.203 90.9259 126.658 91.4404ZM135.554 91.4404C134.238 91.4404 133.571 93.0048 134.509 93.9273C140.42 99.7387 146.545 104.113 153.978 107.553C154.954 108.005 156.053 107.281 156.053 106.205V92.9404C156.053 92.112 155.381 91.4404 154.553 91.4404H135.554ZM209.141 91.3809C206.951 91.0933 205.409 89.0845 205.696 86.8942L206.477 80.9452C206.615 79.8934 207.166 78.9395 208.007 78.2934C208.849 77.6473 209.912 77.3619 210.964 77.5001C223.084 79.0916 233.261 81.0713 242.088 83.7537C253.205 87.1319 261.428 91.631 268.707 97.8123C275.82 103.853 281.827 111.344 288.606 120.179C289.252 121.021 289.537 122.085 289.399 123.136C289.26 124.188 288.709 125.142 287.868 125.788L283.108 129.44C281.355 130.785 278.844 130.454 277.499 128.702C270.682 119.817 265.485 113.443 259.645 108.483C253.97 103.664 247.491 100.028 238.017 97.1489C230.184 94.7685 220.827 92.9153 209.141 91.3809ZM112.782 90.3571C108.626 85.0453 112.498 77.4404 119.08 77.4404H192.053C196.471 77.4404 200.053 81.0221 200.053 85.4404V123.301C200.053 128.124 195.804 131.876 190.988 131.227C179.376 129.663 169.565 127.725 161.017 125.127C139.343 118.541 126.507 107.901 112.782 90.3571ZM170.053 111.954C170.053 112.639 170.516 113.238 171.181 113.402C175.166 114.386 179.519 115.269 184.317 116.071C185.227 116.224 186.053 115.519 186.053 114.597V92.9404C186.053 92.112 185.381 91.4404 184.553 91.4404H171.553C170.724 91.4404 170.053 92.112 170.053 92.9404V111.954ZM190.053 119.274C190.053 120.187 189.245 120.888 188.342 120.754C187.569 120.64 186.806 120.523 186.053 120.405C178.941 119.288 172.708 118.004 167.146 116.487C166.498 116.31 166.053 115.72 166.053 115.048V88.9404C166.053 88.112 166.724 87.4404 167.553 87.4404H188.553C189.381 87.4404 190.053 88.112 190.053 88.9404V119.274ZM214.406 82.0108C224.654 83.4857 233.341 85.2762 240.925 87.5809C251.572 90.8164 259.297 95.069 266.118 100.861C272.043 105.893 277.219 112.036 282.988 119.448C283.79 120.478 284.603 121.533 285.432 122.613V122.613C285.432 122.614 285.432 122.615 285.431 122.615L280.675 126.265C280.674 126.266 280.672 126.266 280.671 126.265V126.265C273.866 117.396 268.437 110.703 262.234 105.434C256.101 100.226 249.123 96.3431 239.18 93.3217C231.407 90.9595 222.281 89.1267 211.15 87.6138C210.329 87.5022 209.75 86.7491 209.857 85.9277L210.248 82.9532C210.356 82.1319 211.109 81.5531 211.93 81.6646C212.765 81.778 213.591 81.8934 214.406 82.0108ZM239.968 62.9051C240.261 62.2585 240.605 61.572 241.005 60.845C241.535 59.8827 242.884 59.8771 243.403 60.8454C243.796 61.5794 244.129 62.2854 244.408 62.9601C245.296 65.1112 245.626 66.944 245.539 68.352C245.463 69.5968 245.076 70.4029 244.592 70.9091C244.165 71.3556 243.495 71.7451 242.436 71.8974C242.3 71.9171 242.16 71.9126 242.024 71.8866C240.795 71.651 240.002 71.2356 239.511 70.7851C239.012 70.3261 238.655 69.6764 238.571 68.6501C238.461 67.3054 238.835 65.4027 239.968 62.9051ZM115.932 87.8924C113.865 85.2504 115.776 81.4404 119.08 81.4404H192.053C194.262 81.4404 196.053 83.2313 196.053 85.4404V123.301C196.053 125.714 193.927 127.587 191.522 127.263C180.035 125.715 170.453 123.814 162.18 121.3C141.485 115.011 129.291 104.968 115.932 87.8924Z" fill="url(#paint0_linear_22_74)"/>
<defs>
<linearGradient id="paint0_linear_22_74" x1="292.553" y1="-22.0596" x2="31.5527" y2="132.94" gradientUnits="userSpaceOnUse">
<stop stop-color="#6653DC"/>
<stop offset="0.461929" stop-color="#552F73"/>
<stop offset="1" stop-color="#4A5698"/>
</linearGradient>
</defs>
</svg>
