<svg width="396" height="308" viewBox="0 0 396 308" fill="none" xmlns="http://www.w3.org/2000/svg">
<rect width="396" height="308" fill="#1E1E1E"/>
<g clip-path="url(#clip0_0_1)">
<path d="M93.6035 176H82.2754C82.015 176 81.8848 175.837 81.8848 175.512L82.0801 106.811C82.0801 106.55 82.2103 106.42 82.4707 106.42H94.6777C94.9382 106.42 95.166 106.55 95.3613 106.811L104.492 119.994L113.574 106.811C113.77 106.55 114.014 106.42 114.307 106.42H126.562C126.855 106.42 127.002 106.55 127.002 106.811L127.197 175.512C127.197 175.837 127.067 176 126.807 176H115.479C115.218 176 115.088 175.837 115.088 175.512L114.99 124.486L104.492 139.721L94.0918 124.486L93.9941 175.512C93.9941 175.837 93.8639 176 93.6035 176ZM154.102 176.977C150.553 176.977 147.282 176.065 144.287 174.242C141.325 172.419 138.932 169.994 137.109 166.967C135.319 163.907 134.424 160.554 134.424 156.908L134.521 125.219C134.521 121.508 135.417 118.171 137.207 115.209C138.965 112.214 141.341 109.822 144.336 108.031C147.331 106.208 150.586 105.297 154.102 105.297C157.747 105.297 161.019 106.192 163.916 107.982C166.846 109.773 169.189 112.182 170.947 115.209C172.738 118.204 173.633 121.54 173.633 125.219L173.73 156.908C173.73 160.554 172.852 163.891 171.094 166.918C169.303 169.978 166.927 172.419 163.965 174.242C161.003 176.065 157.715 176.977 154.102 176.977ZM154.102 164.916C156.12 164.916 157.878 164.102 159.375 162.475C160.872 160.814 161.621 158.959 161.621 156.908L161.523 125.219C161.523 123.005 160.824 121.133 159.424 119.604C158.024 118.074 156.25 117.309 154.102 117.309C152.051 117.309 150.293 118.057 148.828 119.555C147.363 121.052 146.631 122.94 146.631 125.219V156.908C146.631 159.089 147.363 160.977 148.828 162.572C150.293 164.135 152.051 164.916 154.102 164.916ZM200.586 176H189.307C189.014 176 188.867 175.837 188.867 175.512V118.48H175.879C175.553 118.48 175.391 118.318 175.391 117.992L175.488 106.811C175.488 106.55 175.618 106.42 175.879 106.42H213.867C214.225 106.42 214.404 106.55 214.404 106.811V117.992C214.404 118.318 214.274 118.48 214.014 118.48H200.879L200.977 175.512C200.977 175.837 200.846 176 200.586 176ZM231.104 176H219.775C219.45 176 219.287 175.837 219.287 175.512L219.385 106.811C219.385 106.55 219.515 106.42 219.775 106.42H231.006C231.266 106.42 231.396 106.55 231.396 106.811L231.494 175.512C231.494 175.837 231.364 176 231.104 176ZM258.789 176.977C255.241 176.977 251.969 176.065 248.975 174.242C246.012 172.419 243.62 169.994 241.797 166.967C240.007 163.907 239.111 160.554 239.111 156.908L239.209 125.219C239.209 121.508 240.104 118.171 241.895 115.209C243.652 112.214 246.029 109.822 249.023 108.031C252.018 106.208 255.273 105.297 258.789 105.297C262.435 105.297 265.706 106.192 268.604 107.982C271.533 109.773 273.877 112.182 275.635 115.209C277.425 118.204 278.32 121.54 278.32 125.219L278.418 156.908C278.418 160.554 277.539 163.891 275.781 166.918C273.991 169.978 271.615 172.419 268.652 174.242C265.69 176.065 262.402 176.977 258.789 176.977ZM258.789 164.916C260.807 164.916 262.565 164.102 264.062 162.475C265.56 160.814 266.309 158.959 266.309 156.908L266.211 125.219C266.211 123.005 265.511 121.133 264.111 119.604C262.712 118.074 260.938 117.309 258.789 117.309C256.738 117.309 254.98 118.057 253.516 119.555C252.051 121.052 251.318 122.94 251.318 125.219V156.908C251.318 159.089 252.051 160.977 253.516 162.572C254.98 164.135 256.738 164.916 258.789 164.916ZM296.875 176H286.865C286.344 176 286.084 175.772 286.084 175.316L285.986 107.201C285.986 106.68 286.247 106.42 286.768 106.42H295.801L312.695 145.824L312.207 107.201C312.207 106.68 312.5 106.42 313.086 106.42H322.998C323.389 106.42 323.584 106.68 323.584 107.201L323.682 175.414C323.682 175.805 323.519 176 323.193 176H314.404L297.07 139.184L297.803 175.219C297.803 175.74 297.493 176 296.875 176Z" fill="white"/>
<path d="M250 73.76L153.715 73.76L153.715 41.403L168.256 41.403L168.256 59.612L194.194 59.612L194.194 46.512L208.342 46.512L208.342 59.612L235.459 59.612L235.459 41.403L250 41.403L250 73.76Z" fill="white"/>
<path d="M76 90H140H204H268H332M190.031 242.571V198.599C190.031 195.792 192.341 193.536 195.147 193.6L208.678 193.913C211.394 193.976 213.562 196.195 213.562 198.912V242.883C213.562 245.69 211.253 247.947 208.447 247.882L194.916 247.569C192.2 247.506 190.031 245.287 190.031 242.571ZM110.571 224.322C103.357 217.97 95.2475 209.382 88.5811 201.774C85.8454 198.652 88.0155 193.844 92.1647 193.719L112.849 193.094C115.668 193.009 118 195.271 118 198.092V220.729C118 224.754 113.592 226.982 110.571 224.322ZM293.361 225.296C303.116 218.166 313.047 208.676 318.937 200.664C321.096 197.727 318.847 194.026 315.202 194.026H291C288.239 194.026 286 196.264 286 199.026V221.363C286 225.257 290.217 227.594 293.361 225.296ZM244.236 244.542C250.167 243.066 253.513 241.157 259.399 238.891C261.39 238.125 262.75 236.237 262.75 234.103V199.026C262.75 196.264 260.511 194.026 257.75 194.026H243.5C240.739 194.026 238.5 196.264 238.5 199.026V239.835C238.5 242.906 241.256 245.283 244.236 244.542ZM161.276 193.173L147.026 193.812C144.354 193.931 142.25 196.132 142.25 198.807V234.132C142.25 236.206 143.531 238.068 145.471 238.8C151.313 241.004 155.227 242.34 160.7 243.51C163.72 244.155 166.5 241.785 166.5 238.696V198.168C166.5 195.318 164.123 193.045 161.276 193.173Z" stroke="white" stroke-width="10"/>
<ellipse cx="7.5" cy="13.5" rx="7.5" ry="13.5" transform="matrix(1 0 0 -1 154 147)" fill="white"/>
<ellipse cx="7.5" cy="13.5" rx="7.5" ry="13.5" transform="matrix(1 0 0 -1 257 147)" fill="white"/>
<path d="M201 14V37" stroke="black"/>
<path d="M201 37V19" stroke="white" stroke-width="12"/>
</g>
<defs>
<clipPath id="clip0_0_1">
<rect width="396" height="308" fill="white"/>
</clipPath>
</defs>
</svg>
