<svg width="400" height="190" viewBox="0 0 400 190" fill="none" xmlns="http://www.w3.org/2000/svg">
<rect width="400" height="190" fill="#1E1E1E"/>
<g clip-path="url(#clip0_0_1)">
<path d="M5.50391 40.209H44.498V48.3535H14.791V57.4941H41.0996V65.1406H14.791V77.8848H45.1133V86H5.50391V40.209ZM48.7355 59.457H75.6008V65.9609H48.7355V59.457ZM81.977 40.209H91.2641L107.905 56.9082L124.545 40.209H133.832V86H124.545V53.0703L107.905 69.0957L91.2641 53.0703V86H81.977V40.209ZM139.974 62.9727C139.974 59.5156 140.609 56.3516 141.879 53.4805C143.148 50.6094 144.925 48.1484 147.211 46.0977C149.515 44.0273 152.269 42.4258 155.472 41.293C158.695 40.1602 162.259 39.5938 166.166 39.5938C170.052 39.5938 173.607 40.1602 176.83 41.293C180.052 42.4258 182.806 44.0273 185.091 46.0977C187.396 48.1484 189.183 50.6094 190.453 53.4805C191.722 56.3516 192.357 59.5156 192.357 62.9727C192.357 66.4492 191.722 69.6426 190.453 72.5527C189.183 75.4434 187.396 77.9336 185.091 80.0234C182.806 82.1133 180.052 83.7441 176.83 84.916C173.607 86.0684 170.052 86.6445 166.166 86.6445C162.259 86.6445 158.695 86.0684 155.472 84.916C152.269 83.7441 149.515 82.1133 147.211 80.0234C144.925 77.9336 143.148 75.4434 141.879 72.5527C140.609 69.6426 139.974 66.4492 139.974 62.9727ZM149.261 62.9727C149.261 65.3359 149.681 67.4648 150.521 69.3594C151.38 71.2539 152.562 72.875 154.066 74.2227C155.589 75.5508 157.377 76.5762 159.427 77.2988C161.498 78.0215 163.744 78.3828 166.166 78.3828C168.587 78.3828 170.824 78.0215 172.875 77.2988C174.945 76.5762 176.732 75.5508 178.236 74.2227C179.74 72.875 180.921 71.2539 181.781 69.3594C182.64 67.4648 183.07 65.3359 183.07 62.9727C183.07 60.6094 182.64 58.4902 181.781 56.6152C180.921 54.7402 179.74 53.1582 178.236 51.8691C176.732 50.5605 174.945 49.5645 172.875 48.8809C170.824 48.1973 168.587 47.8555 166.166 47.8555C163.744 47.8555 161.498 48.1973 159.427 48.8809C157.377 49.5645 155.589 50.5605 154.066 51.8691C152.562 53.1582 151.38 54.7402 150.521 56.6152C149.681 58.4902 149.261 60.6094 149.261 62.9727ZM212.268 48.3535H195.364V40.209H238.46V48.3535H221.555V86H212.268V48.3535ZM243.02 40.209H252.365V86H243.02V40.209ZM322.859 40.209H332.146L360.682 55.1504V40.209H369.969V86H360.682V64.9941L332.146 50.1406V86H322.859V40.209Z" fill="white"/>
<path d="M152 112H108.028C107.199 112 106.731 112.95 107.242 113.603C120.326 130.327 132.039 139.924 152 145.989M152 112H181C181.552 112 182 112.448 182 113V150.86C182 151.464 181.469 151.93 180.87 151.85C169.477 150.314 160.065 148.44 152 145.989M152 112V145.989" stroke="white" stroke-width="9"/>
<path d="M272 152C258.404 134.282 249.59 124.268 229 118.011C220.67 115.479 210.903 113.563 199 112" stroke="white" stroke-width="9"/>
<path d="M267 49C273 68 297 68 304 49" stroke="white" stroke-width="7"/>
<path d="M284.989 90.9845C277.854 89.9155 276.444 83.4971 284.329 72.0844C284.707 71.5375 285.506 71.5217 285.9 72.057C293.279 82.081 292.306 90.4076 285.203 90.9918C285.133 90.9975 285.058 90.9949 284.989 90.9845Z" stroke="white" stroke-width="5"/>
<ellipse cx="11" cy="9.5" rx="11" ry="9.5" transform="matrix(1 0 0 -1 160 65)" fill="white"/>
</g>
<defs>
<clipPath id="clip0_0_1">
<rect width="400" height="190" fill="white"/>
</clipPath>
</defs>
</svg>
