<svg width="418" height="131" viewBox="0 0 418 131" fill="none" xmlns="http://www.w3.org/2000/svg">
<rect width="418" height="131" fill="#1E1E1E"/>
<path d="M7.58789 42.5771H53.0811V52.0791H18.4229V62.7432H49.1162V71.6641H18.4229V86.5322H53.7988V96H7.58789V42.5771ZM55.9248 65.0332H87.2676V72.6211H55.9248V65.0332ZM92.6064 42.5771H103.441L122.855 62.0596L142.27 42.5771H153.104V96H142.27V57.582L122.855 76.2783L103.441 57.582V96H92.6064V42.5771ZM158.17 69.1348C158.17 65.1016 158.91 61.4102 160.392 58.0605C161.873 54.7109 163.946 51.8398 166.612 49.4473C169.301 47.0319 172.514 45.1634 176.251 43.8418C180.011 42.5202 184.169 41.8594 188.727 41.8594C193.261 41.8594 197.408 42.5202 201.168 43.8418C204.928 45.1634 208.141 47.0319 210.807 49.4473C213.495 51.8398 215.58 54.7109 217.062 58.0605C218.543 61.4102 219.283 65.1016 219.283 69.1348C219.283 73.1908 218.543 76.9163 217.062 80.3115C215.58 83.6839 213.495 86.5892 210.807 89.0273C208.141 91.4655 204.928 93.3682 201.168 94.7354C197.408 96.0798 193.261 96.752 188.727 96.752C184.169 96.752 180.011 96.0798 176.251 94.7354C172.514 93.3682 169.301 91.4655 166.612 89.0273C163.946 86.5892 161.873 83.6839 160.392 80.3115C158.91 76.9163 158.17 73.1908 158.17 69.1348ZM169.005 69.1348C169.005 71.8919 169.495 74.3757 170.475 76.5859C171.477 78.7962 172.856 80.6875 174.61 82.2598C176.388 83.8092 178.473 85.0055 180.865 85.8486C183.281 86.6917 185.901 87.1133 188.727 87.1133C191.552 87.1133 194.161 86.6917 196.554 85.8486C198.969 85.0055 201.054 83.8092 202.809 82.2598C204.563 80.6875 205.942 78.7962 206.944 76.5859C207.947 74.3757 208.448 71.8919 208.448 69.1348C208.448 66.3776 207.947 63.9053 206.944 61.7178C205.942 59.5303 204.563 57.6846 202.809 56.1807C201.054 54.654 198.969 53.4919 196.554 52.6943C194.161 51.8968 191.552 51.498 188.727 51.498C185.901 51.498 183.281 51.8968 180.865 52.6943C178.473 53.4919 176.388 54.654 174.61 56.1807C172.856 57.6846 171.477 59.5303 170.475 61.7178C169.495 63.9053 169.005 66.3776 169.005 69.1348ZM240.413 52.0791H220.691V42.5771H270.97V52.0791H251.248V96H240.413V52.0791ZM274.189 42.5771H285.093V96H274.189V42.5771ZM340.594 42.5771H351.429L384.72 60.0088V42.5771H395.555V96H384.72V71.4932L351.429 54.1641V96H340.594V42.5771Z" fill="white"/>
<path d="M298 78L293 87" stroke="white" stroke-width="9"/>
<path d="M293 66C299 85 323 85 330 66" stroke="white" stroke-width="9"/>
<path d="M312 81V94" stroke="white" stroke-width="9"/>
<path d="M324 76L332 87" stroke="white" stroke-width="9"/>
<ellipse cx="11" cy="10.5" rx="11" ry="10.5" transform="matrix(1 0 0 -1 187 73)" fill="white"/>
</svg>
